<?xml version="1.0" encoding="UTF-8" standalone="no"?>
<svg
   xmlns:dc="http://purl.org/dc/elements/1.1/"
   xmlns:cc="http://creativecommons.org/ns#"
   xmlns:rdf="http://www.w3.org/1999/02/22-rdf-syntax-ns#"
   xmlns:svg="http://www.w3.org/2000/svg"
   xmlns="http://www.w3.org/2000/svg"
   xmlns:sodipodi="http://sodipodi.sourceforge.net/DTD/sodipodi-0.dtd"
   xmlns:inkscape="http://www.inkscape.org/namespaces/inkscape"
   version="1.1"
   id="svg2"
   xml:space="preserve"
   width="187.34839"
   height="128.83257"
   viewBox="0 0 187.34839 128.83256"
   sodipodi:docname="Act_2.svg"
   inkscape:version="1.0.2 (e86c870879, 2021-01-15)"><metadata
     id="metadata8"><rdf:RDF><cc:Work
         rdf:about=""><dc:format>image/svg+xml</dc:format><dc:type
           rdf:resource="http://purl.org/dc/dcmitype/StillImage" /><dc:title /></cc:Work></rdf:RDF></metadata><defs
     id="defs6"><clipPath
       clipPathUnits="userSpaceOnUse"
       id="clipPath20"><path
         d="m 0,2211 v 766 h 860 v -766 z"
         id="path18" /></clipPath><clipPath
       clipPathUnits="userSpaceOnUse"
       id="clipPath40"><path
         d="m 963,2211 v 766 h 1527 v -766 z"
         id="path38" /></clipPath><clipPath
       clipPathUnits="userSpaceOnUse"
       id="clipPath52"><path
         d="m 963.75,2211.32 h 1530.23 v 765.199 H 963.75 Z"
         id="path50" /></clipPath><clipPath
       clipPathUnits="userSpaceOnUse"
       id="clipPath496"><path
         d="M 2845.51,2314.61 H 4036.6 v 666.68 H 2845.51 Z"
         id="path494" /></clipPath><clipPath
       clipPathUnits="userSpaceOnUse"
       id="clipPath7282"><path
         d="M 2153.52,2166.37 H 3588.91 V 1995.698 H 2153.52 Z m 1263.2,-170.67 h 172.191 V 1258.091 H 3416.72 Z m -1263.2,0 h 169.57 v -737.609 h -169.57 z m 0,-737.61 H 3588.91 V 1076.84 H 2153.52 Z"
         id="path7280" /></clipPath><clipPath
       clipPathUnits="userSpaceOnUse"
       id="clipPath7288"><path
         d="M 2150,1070 H 3590 V 2170 H 2150 Z"
         id="path7286" /></clipPath><clipPath
       clipPathUnits="userSpaceOnUse"
       id="clipPath8884"><path
         d="m 3680,2040 h 20 v 50 h -20 z"
         id="path8882" /></clipPath><clipPath
       clipPathUnits="userSpaceOnUse"
       id="clipPath8896"><path
         d="m 3790,2040 h 20 v 50 h -20 z"
         id="path8894" /></clipPath><clipPath
       clipPathUnits="userSpaceOnUse"
       id="clipPath8908"><path
         d="m 3680,2010 h 20 v 30 h -20 z"
         id="path8906" /></clipPath><clipPath
       clipPathUnits="userSpaceOnUse"
       id="clipPath8920"><path
         d="m 3790,2010 h 130 v 30 h -130 z"
         id="path8918" /></clipPath><clipPath
       clipPathUnits="userSpaceOnUse"
       id="clipPath8932"><path
         d="m 3680,1980 h 20 v 30 h -20 z"
         id="path8930" /></clipPath><clipPath
       clipPathUnits="userSpaceOnUse"
       id="clipPath8944"><path
         d="m 3790,1980 h 20 v 30 h -20 z"
         id="path8942" /></clipPath><clipPath
       clipPathUnits="userSpaceOnUse"
       id="clipPath8956"><path
         d="m 3840,1980 h 80 v 30 h -80 z"
         id="path8954" /></clipPath><clipPath
       clipPathUnits="userSpaceOnUse"
       id="clipPath8968"><path
         d="m 3680,1950 h 20 v 30 h -20 z"
         id="path8966" /></clipPath><clipPath
       clipPathUnits="userSpaceOnUse"
       id="clipPath8980"><path
         d="m 3790,1950 h 20 v 30 h -20 z"
         id="path8978" /></clipPath><clipPath
       clipPathUnits="userSpaceOnUse"
       id="clipPath8992"><path
         d="m 3890,1950 h 30 v 30 h -30 z"
         id="path8990" /></clipPath><clipPath
       clipPathUnits="userSpaceOnUse"
       id="clipPath9004"><path
         d="m 3680,1900 h 20 v 50 h -20 z"
         id="path9002" /></clipPath><clipPath
       clipPathUnits="userSpaceOnUse"
       id="clipPath9016"><path
         d="m 3790,1900 h 20 v 50 h -20 z"
         id="path9014" /></clipPath><clipPath
       clipPathUnits="userSpaceOnUse"
       id="clipPath9028"><path
         d="m 3900,1900 h 20 v 50 h -20 z"
         id="path9026" /></clipPath><clipPath
       clipPathUnits="userSpaceOnUse"
       id="clipPath9040"><path
         d="m 3680,1820 h 20 v 80 h -20 z"
         id="path9038" /></clipPath><clipPath
       clipPathUnits="userSpaceOnUse"
       id="clipPath9052"><path
         d="m 3790,1820 h 20 v 80 h -20 z"
         id="path9050" /></clipPath><clipPath
       clipPathUnits="userSpaceOnUse"
       id="clipPath9064"><path
         d="m 3910,1820 h 10 v 80 h -10 z"
         id="path9062" /></clipPath><clipPath
       clipPathUnits="userSpaceOnUse"
       id="clipPath9076"><path
         d="m 3680,1750 h 20 v 70 h -20 z"
         id="path9074" /></clipPath><clipPath
       clipPathUnits="userSpaceOnUse"
       id="clipPath9088"><path
         d="m 3790,1750 h 20 v 70 h -20 z"
         id="path9086" /></clipPath><clipPath
       clipPathUnits="userSpaceOnUse"
       id="clipPath9100"><path
         d="m 3680,1700 h 20 v 50 h -20 z"
         id="path9098" /></clipPath><clipPath
       clipPathUnits="userSpaceOnUse"
       id="clipPath9112"><path
         d="m 3790,1700 h 20 v 50 h -20 z"
         id="path9110" /></clipPath><clipPath
       clipPathUnits="userSpaceOnUse"
       id="clipPath9124"><path
         d="m 3910,1700 h 20 v 50 h -20 z"
         id="path9122" /></clipPath><clipPath
       clipPathUnits="userSpaceOnUse"
       id="clipPath9136"><path
         d="m 3680,1550 h 20 v 150 h -20 z"
         id="path9134" /></clipPath><clipPath
       clipPathUnits="userSpaceOnUse"
       id="clipPath9148"><path
         d="m 3790,1550 h 20 v 150 h -20 z"
         id="path9146" /></clipPath><clipPath
       clipPathUnits="userSpaceOnUse"
       id="clipPath9160"><path
         d="m 3910,1550 h 30 v 150 h -30 z"
         id="path9158" /></clipPath><clipPath
       clipPathUnits="userSpaceOnUse"
       id="clipPath9172"><path
         d="m 3680,1500 h 20 v 50 h -20 z"
         id="path9170" /></clipPath><clipPath
       clipPathUnits="userSpaceOnUse"
       id="clipPath9184"><path
         d="m 3790,1500 h 20 v 50 h -20 z"
         id="path9182" /></clipPath><clipPath
       clipPathUnits="userSpaceOnUse"
       id="clipPath9196"><path
         d="m 3910,1500 h 40 v 50 h -40 z"
         id="path9194" /></clipPath><clipPath
       clipPathUnits="userSpaceOnUse"
       id="clipPath9208"><path
         d="m 3680,1440 h 20 v 60 h -20 z"
         id="path9206" /></clipPath><clipPath
       clipPathUnits="userSpaceOnUse"
       id="clipPath9220"><path
         d="m 3790,1440 h 20 v 60 h -20 z"
         id="path9218" /></clipPath><clipPath
       clipPathUnits="userSpaceOnUse"
       id="clipPath9232"><path
         d="m 3910,1440 h 50 v 60 h -50 z"
         id="path9230" /></clipPath><clipPath
       clipPathUnits="userSpaceOnUse"
       id="clipPath9244"><path
         d="m 3680,1370 h 20 v 70 h -20 z"
         id="path9242" /></clipPath><clipPath
       clipPathUnits="userSpaceOnUse"
       id="clipPath9256"><path
         d="m 3790,1370 h 20 v 70 h -20 z"
         id="path9254" /></clipPath><clipPath
       clipPathUnits="userSpaceOnUse"
       id="clipPath9268"><path
         d="m 3910,1370 h 60 v 70 h -60 z"
         id="path9266" /></clipPath><clipPath
       clipPathUnits="userSpaceOnUse"
       id="clipPath9280"><path
         d="m 3680,1290 h 20 v 80 h -20 z"
         id="path9278" /></clipPath><clipPath
       clipPathUnits="userSpaceOnUse"
       id="clipPath9292"><path
         d="m 3790,1290 h 20 v 80 h -20 z"
         id="path9290" /></clipPath><clipPath
       clipPathUnits="userSpaceOnUse"
       id="clipPath9304"><path
         d="m 3910,1290 h 70 v 80 h -70 z"
         id="path9302" /></clipPath><clipPath
       clipPathUnits="userSpaceOnUse"
       id="clipPath9316"><path
         d="m 3680,1260 h 20 v 30 h -20 z"
         id="path9314" /></clipPath><clipPath
       clipPathUnits="userSpaceOnUse"
       id="clipPath9328"><path
         d="m 3790,1260 h 20 v 30 h -20 z"
         id="path9326" /></clipPath><clipPath
       clipPathUnits="userSpaceOnUse"
       id="clipPath9340"><path
         d="m 3910,1260 h 80 v 30 h -80 z"
         id="path9338" /></clipPath><clipPath
       clipPathUnits="userSpaceOnUse"
       id="clipPath9352"><path
         d="m 3680,1190 h 20 v 70 h -20 z"
         id="path9350" /></clipPath><clipPath
       clipPathUnits="userSpaceOnUse"
       id="clipPath9364"><path
         d="m 3790,1190 h 20 v 70 h -20 z"
         id="path9362" /></clipPath><clipPath
       clipPathUnits="userSpaceOnUse"
       id="clipPath9376"><path
         d="m 3910,1190 h 90 v 70 h -90 z"
         id="path9374" /></clipPath><clipPath
       clipPathUnits="userSpaceOnUse"
       id="clipPath9388"><path
         d="m 3680,1130 h 20 v 60 h -20 z"
         id="path9386" /></clipPath><clipPath
       clipPathUnits="userSpaceOnUse"
       id="clipPath9400"><path
         d="m 3790,1130 h 20 v 60 h -20 z"
         id="path9398" /></clipPath><clipPath
       clipPathUnits="userSpaceOnUse"
       id="clipPath9412"><path
         d="m 3910,1130 h 110 v 60 h -110 z"
         id="path9410" /></clipPath><clipPath
       clipPathUnits="userSpaceOnUse"
       id="clipPath9424"><path
         d="m 3680,1030 h 20 v 100 h -20 z"
         id="path9422" /></clipPath><clipPath
       clipPathUnits="userSpaceOnUse"
       id="clipPath9436"><path
         d="m 3790,1030 h 20 v 100 h -20 z"
         id="path9434" /></clipPath><clipPath
       clipPathUnits="userSpaceOnUse"
       id="clipPath9448"><path
         d="m 2590,820 h 730 v 20 h -730 z"
         id="path9446" /></clipPath><clipPath
       clipPathUnits="userSpaceOnUse"
       id="clipPath9460"><path
         d="m 1670,720 h 680 v 10 h -680 z"
         id="path9458" /></clipPath><clipPath
       clipPathUnits="userSpaceOnUse"
       id="clipPath9472"><path
         d="m 1670,710 h 680 v 10 h -680 z"
         id="path9470" /></clipPath><clipPath
       clipPathUnits="userSpaceOnUse"
       id="clipPath9484"><path
         d="m 3580,710 h 700 v 10 h -700 z"
         id="path9482" /></clipPath><clipPath
       clipPathUnits="userSpaceOnUse"
       id="clipPath9496"><path
         d="m 3580,700 h 700 v 10 h -700 z"
         id="path9494" /></clipPath><clipPath
       clipPathUnits="userSpaceOnUse"
       id="clipPath9508"><path
         d="m 2590,670 h 730 v 20 h -730 z"
         id="path9506" /></clipPath><clipPath
       clipPathUnits="userSpaceOnUse"
       id="clipPath9520"><path
         d="m 2590,520 h 730 v 20 h -730 z"
         id="path9518" /></clipPath><clipPath
       clipPathUnits="userSpaceOnUse"
       id="clipPath9532"><path
         d="m 3580,470 h 700 v 10 h -700 z"
         id="path9530" /></clipPath><clipPath
       clipPathUnits="userSpaceOnUse"
       id="clipPath9544"><path
         d="m 1670,460 h 680 v 10 h -680 z"
         id="path9542" /></clipPath><clipPath
       clipPathUnits="userSpaceOnUse"
       id="clipPath9556"><path
         d="m 3580,460 h 700 v 10 h -700 z"
         id="path9554" /></clipPath><clipPath
       clipPathUnits="userSpaceOnUse"
       id="clipPath9568"><path
         d="m 1670,450 h 680 v 10 h -680 z"
         id="path9566" /></clipPath><clipPath
       clipPathUnits="userSpaceOnUse"
       id="clipPath9580"><path
         d="m 2590,370 h 730 v 20 h -730 z"
         id="path9578" /></clipPath><clipPath
       clipPathUnits="userSpaceOnUse"
       id="clipPath9592"><path
         d="m 2590,220 h 730 v 20 h -730 z"
         id="path9590" /></clipPath><clipPath
       clipPathUnits="userSpaceOnUse"
       id="clipPath9604"><path
         d="m 3580,220 h 700 v 20 h -700 z"
         id="path9602" /></clipPath><clipPath
       clipPathUnits="userSpaceOnUse"
       id="clipPath9616"><path
         d="m 1670,190 h 680 v 20 h -680 z"
         id="path9614" /></clipPath></defs><sodipodi:namedview
     pagecolor="#ffffff"
     bordercolor="#666666"
     borderopacity="1"
     objecttolerance="10"
     gridtolerance="10"
     guidetolerance="10"
     inkscape:pageopacity="0"
     inkscape:pageshadow="2"
     inkscape:window-width="1906"
     inkscape:window-height="1042"
     id="namedview4"
     showgrid="false"
     inkscape:zoom="1.0097087"
     inkscape:cx="54.607857"
     inkscape:cy="-19.443833"
     inkscape:window-x="1926"
     inkscape:window-y="30"
     inkscape:window-maximized="0"
     inkscape:current-layer="g18480"
     inkscape:document-rotation="0" /><g
     id="g10"
     inkscape:groupmode="layer"
     inkscape:label="Figure_3"
     transform="matrix(1.3333333,0,0,-1.3333333,0,268.70724)"><g
       id="g12"
       transform="scale(0.1)"><g
         id="g2482"><g
           id="g18480"><g
             id="g5301"><g
               id="g18212"><path
                 d="M 271.719,1274.14 H 1338.4"
                 style="fill:none;stroke:#262626;stroke-width:5;stroke-linecap:square;stroke-linejoin:round;stroke-miterlimit:10;stroke-dasharray:none;stroke-opacity:1"
                 id="path4124-8" /><path
                 d="m 351.988,1274.14 v 5.31"
                 style="fill:none;stroke:#262626;stroke-width:5;stroke-linecap:square;stroke-linejoin:round;stroke-miterlimit:10;stroke-dasharray:none;stroke-opacity:1"
                 id="path4128" /><path
                 d="m 398.98,1274.14 v 5.31"
                 style="fill:none;stroke:#262626;stroke-width:5;stroke-linecap:square;stroke-linejoin:round;stroke-miterlimit:10;stroke-dasharray:none;stroke-opacity:1"
                 id="path4130" /><path
                 d="m 432.27,1274.14 v 5.31"
                 style="fill:none;stroke:#262626;stroke-width:5;stroke-linecap:square;stroke-linejoin:round;stroke-miterlimit:10;stroke-dasharray:none;stroke-opacity:1"
                 id="path4132" /><path
                 d="m 458.129,1274.14 v 5.31"
                 style="fill:none;stroke:#262626;stroke-width:5;stroke-linecap:square;stroke-linejoin:round;stroke-miterlimit:10;stroke-dasharray:none;stroke-opacity:1"
                 id="path4134" /><path
                 d="m 479.262,1274.14 v 5.31"
                 style="fill:none;stroke:#262626;stroke-width:5;stroke-linecap:square;stroke-linejoin:round;stroke-miterlimit:10;stroke-dasharray:none;stroke-opacity:1"
                 id="path4136" /><path
                 d="m 497.109,1274.14 v 5.31"
                 style="fill:none;stroke:#262626;stroke-width:5;stroke-linecap:square;stroke-linejoin:round;stroke-miterlimit:10;stroke-dasharray:none;stroke-opacity:1"
                 id="path4138" /><path
                 d="m 512.539,1274.14 v 5.31"
                 style="fill:none;stroke:#262626;stroke-width:5;stroke-linecap:square;stroke-linejoin:round;stroke-miterlimit:10;stroke-dasharray:none;stroke-opacity:1"
                 id="path4140" /><path
                 d="m 526.211,1274.14 v 5.31"
                 style="fill:none;stroke:#262626;stroke-width:5;stroke-linecap:square;stroke-linejoin:round;stroke-miterlimit:10;stroke-dasharray:none;stroke-opacity:1"
                 id="path4142" /><path
                 d="m 538.398,1274.14 v 5.31"
                 style="fill:none;stroke:#262626;stroke-width:5;stroke-linecap:square;stroke-linejoin:round;stroke-miterlimit:10;stroke-dasharray:none;stroke-opacity:1"
                 id="path4144" /><path
                 d="m 618.672,1274.14 v 5.31"
                 style="fill:none;stroke:#262626;stroke-width:5;stroke-linecap:square;stroke-linejoin:round;stroke-miterlimit:10;stroke-dasharray:none;stroke-opacity:1"
                 id="path4146" /><path
                 d="m 665.629,1274.14 v 5.31"
                 style="fill:none;stroke:#262626;stroke-width:5;stroke-linecap:square;stroke-linejoin:round;stroke-miterlimit:10;stroke-dasharray:none;stroke-opacity:1"
                 id="path4148" /><path
                 d="m 698.949,1274.14 v 5.31"
                 style="fill:none;stroke:#262626;stroke-width:5;stroke-linecap:square;stroke-linejoin:round;stroke-miterlimit:10;stroke-dasharray:none;stroke-opacity:1"
                 id="path4150" /><path
                 d="m 724.801,1274.14 v 5.31"
                 style="fill:none;stroke:#262626;stroke-width:5;stroke-linecap:square;stroke-linejoin:round;stroke-miterlimit:10;stroke-dasharray:none;stroke-opacity:1"
                 id="path4152" /><path
                 d="m 745.898,1274.14 v 5.31"
                 style="fill:none;stroke:#262626;stroke-width:5;stroke-linecap:square;stroke-linejoin:round;stroke-miterlimit:10;stroke-dasharray:none;stroke-opacity:1"
                 id="path4154" /><path
                 d="m 763.75,1274.14 v 5.31"
                 style="fill:none;stroke:#262626;stroke-width:5;stroke-linecap:square;stroke-linejoin:round;stroke-miterlimit:10;stroke-dasharray:none;stroke-opacity:1"
                 id="path4156" /><path
                 d="m 779.219,1274.14 v 5.31"
                 style="fill:none;stroke:#262626;stroke-width:5;stroke-linecap:square;stroke-linejoin:round;stroke-miterlimit:10;stroke-dasharray:none;stroke-opacity:1"
                 id="path4158" /><path
                 d="m 792.852,1274.14 v 5.31"
                 style="fill:none;stroke:#262626;stroke-width:5;stroke-linecap:square;stroke-linejoin:round;stroke-miterlimit:10;stroke-dasharray:none;stroke-opacity:1"
                 id="path4160" /><path
                 d="m 805.078,1274.14 v 5.31"
                 style="fill:none;stroke:#262626;stroke-width:5;stroke-linecap:square;stroke-linejoin:round;stroke-miterlimit:10;stroke-dasharray:none;stroke-opacity:1"
                 id="path4162" /><path
                 d="m 885.352,1274.14 v 5.31"
                 style="fill:none;stroke:#262626;stroke-width:5;stroke-linecap:square;stroke-linejoin:round;stroke-miterlimit:10;stroke-dasharray:none;stroke-opacity:1"
                 id="path4164" /><path
                 d="m 932.301,1274.14 v 5.31"
                 style="fill:none;stroke:#262626;stroke-width:5;stroke-linecap:square;stroke-linejoin:round;stroke-miterlimit:10;stroke-dasharray:none;stroke-opacity:1"
                 id="path4166" /><path
                 d="m 965.629,1274.14 v 5.31"
                 style="fill:none;stroke:#262626;stroke-width:5;stroke-linecap:square;stroke-linejoin:round;stroke-miterlimit:10;stroke-dasharray:none;stroke-opacity:1"
                 id="path4168" /><path
                 d="m 991.449,1274.14 v 5.31"
                 style="fill:none;stroke:#262626;stroke-width:5;stroke-linecap:square;stroke-linejoin:round;stroke-miterlimit:10;stroke-dasharray:none;stroke-opacity:1"
                 id="path4170" /><path
                 d="m 1012.58,1274.14 v 5.31"
                 style="fill:none;stroke:#262626;stroke-width:5;stroke-linecap:square;stroke-linejoin:round;stroke-miterlimit:10;stroke-dasharray:none;stroke-opacity:1"
                 id="path4172" /><path
                 d="m 1030.43,1274.14 v 5.31"
                 style="fill:none;stroke:#262626;stroke-width:5;stroke-linecap:square;stroke-linejoin:round;stroke-miterlimit:10;stroke-dasharray:none;stroke-opacity:1"
                 id="path4174" /><path
                 d="m 1045.9,1274.14 v 5.31"
                 style="fill:none;stroke:#262626;stroke-width:5;stroke-linecap:square;stroke-linejoin:round;stroke-miterlimit:10;stroke-dasharray:none;stroke-opacity:1"
                 id="path4176" /><path
                 d="m 1059.53,1274.14 v 5.31"
                 style="fill:none;stroke:#262626;stroke-width:5;stroke-linecap:square;stroke-linejoin:round;stroke-miterlimit:10;stroke-dasharray:none;stroke-opacity:1"
                 id="path4178" /><path
                 d="m 1071.72,1274.14 v 5.31"
                 style="fill:none;stroke:#262626;stroke-width:5;stroke-linecap:square;stroke-linejoin:round;stroke-miterlimit:10;stroke-dasharray:none;stroke-opacity:1"
                 id="path4180" /><path
                 d="m 1151.99,1274.14 v 5.31"
                 style="fill:none;stroke:#262626;stroke-width:5;stroke-linecap:square;stroke-linejoin:round;stroke-miterlimit:10;stroke-dasharray:none;stroke-opacity:1"
                 id="path4182" /><path
                 d="m 1198.98,1274.14 v 5.31"
                 style="fill:none;stroke:#262626;stroke-width:5;stroke-linecap:square;stroke-linejoin:round;stroke-miterlimit:10;stroke-dasharray:none;stroke-opacity:1"
                 id="path4184" /><path
                 d="m 1232.27,1274.14 v 5.31"
                 style="fill:none;stroke:#262626;stroke-width:5;stroke-linecap:square;stroke-linejoin:round;stroke-miterlimit:10;stroke-dasharray:none;stroke-opacity:1"
                 id="path4186" /><path
                 d="m 1258.13,1274.14 v 5.31"
                 style="fill:none;stroke:#262626;stroke-width:5;stroke-linecap:square;stroke-linejoin:round;stroke-miterlimit:10;stroke-dasharray:none;stroke-opacity:1"
                 id="path4188" /><path
                 d="m 1279.26,1274.14 v 5.31"
                 style="fill:none;stroke:#262626;stroke-width:5;stroke-linecap:square;stroke-linejoin:round;stroke-miterlimit:10;stroke-dasharray:none;stroke-opacity:1"
                 id="path4190" /><path
                 d="m 1297.11,1274.14 v 5.31"
                 style="fill:none;stroke:#262626;stroke-width:5;stroke-linecap:square;stroke-linejoin:round;stroke-miterlimit:10;stroke-dasharray:none;stroke-opacity:1"
                 id="path4192" /><path
                 d="m 1312.54,1274.14 v 5.31"
                 style="fill:none;stroke:#262626;stroke-width:5;stroke-linecap:square;stroke-linejoin:round;stroke-miterlimit:10;stroke-dasharray:none;stroke-opacity:1"
                 id="path4194" /><path
                 d="m 1326.21,1274.14 v 5.31"
                 style="fill:none;stroke:#262626;stroke-width:5;stroke-linecap:square;stroke-linejoin:round;stroke-miterlimit:10;stroke-dasharray:none;stroke-opacity:1"
                 id="path4196" /></g><path
               d="M 271.719,1274.14 H 1338.4"
               style="fill:none;stroke:#262626;stroke-width:5;stroke-linecap:square;stroke-linejoin:round;stroke-miterlimit:10;stroke-dasharray:none;stroke-opacity:1"
               id="path4124" /><path
               d="m 780.738,1087.5 h 16.723 c 1.25,0 4.84,0 4.84,3.44 0,2.34 -2.031,2.34 -4.063,2.34 H 770.43 c -2.032,0 -5.942,0 -10.309,-4.69 -3.281,-3.59 -6.101,-8.43 -6.101,-8.9 0,-0.16 0,-1.1 1.25,-1.1 0.781,0 0.941,0.47 1.57,1.25 4.84,7.66 10.621,7.66 12.648,7.66 h 8.282 l -9.68,-32.03 c -0.469,-1.09 -1.102,-3.28 -1.102,-3.59 0,-1.1 0.782,-2.82 2.973,-2.82 3.277,0 3.75,2.82 4.059,4.38 z"
               style="fill:#000000;fill-opacity:1;fill-rule:nonzero;stroke:none"
               id="path546" /><path
               d="m 36.5586,1565.9 v 17.03 c 0,14.06 -10.3086,27.97 -21.3984,27.97 C 7.33984,1610.9 0,1604.34 0,1591.21 v -32.19 c 0,-1.87 0,-2.97 1.87891,-2.97 1.24218,0 1.24218,0.79 1.24218,2.82 0,1.25 0.16016,3.12 0.16016,4.22 0.30859,1.71 0.46875,2.18 1.71875,2.18 0.30859,0 0.62109,0 1.87891,-0.31 l 53.42969,-13.44 c 3.9102,-0.93 4.6914,-1.09 4.6914,-9.06 0,-1.56 0,-2.66 1.8789,-2.66 1.2422,0 1.2422,1.1 1.2422,1.41 0,2.81 -0.3125,9.84 -0.3125,12.66 0,2.18 0.1602,4.37 0.1602,6.4 0,2.19 0.1523,4.38 0.1523,6.41 0,0.78 0,2.03 -2.0313,2.03 C 65,1568.71 65,1567.77 65,1565.9 c 0,-3.6 0,-6.41 -1.7187,-6.41 -0.6211,0 -1.0899,0.16 -1.7227,0.31 z m -29.67969,7.19 c -3.4375,0.93 -3.75782,1.09 -3.75782,5.46 v 9.54 c 0,8.28 2.66016,13.59 9.53911,13.59 3.8984,0 12.5,-2.03 16.0898,-5.94 4.5313,-5 5.3086,-10.94 5.3086,-15.31 v -14.06 z"
               style="fill:#000000;fill-opacity:1;fill-rule:nonzero;stroke:none"
               id="path548" /><path
               d="m 39.4492,1622.38 c -1.0898,0 -2.6484,-0.93 -2.6484,-2.81 0,-1.87 1.8711,-3.91 3.8984,-3.91 1.1016,0 2.6602,0.79 2.6602,2.82 0,1.87 -2.0313,3.9 -3.9102,3.9 z m 35.4727,-14.22 c 0.9375,-0.31 1.7187,-0.62 2.9687,-0.62 3.2813,0 5.7813,2.66 5.7813,6.56 0,6.88 -9.5313,10 -10.6211,10 -0.9414,0 -0.9414,-0.94 -0.9414,-1.09 0,-0.94 0.4687,-1.1 1.25,-1.41 5.6211,-1.56 8.4414,-4.53 8.4414,-7.34 0,-1.41 -0.9414,-1.72 -2.5,-1.72 -1.5703,0 -2.8203,0.47 -4.3789,1.09 -1.8711,0.78 -3.75,1.57 -5.6211,2.19 -1.7227,0.63 -7.9727,3.28 -8.9102,3.44 -0.6211,0.31 -1.4101,0.47 -2.1914,0.47 -3.2773,0 -5.9297,-2.82 -5.9297,-6.57 0,-7.03 9.5313,-10.15 10.7813,-10.15 0.7773,0 0.7773,0.94 0.7773,1.25 0,0.94 -0.3086,0.94 -1.0976,1.25 -5.9297,1.72 -8.4297,4.84 -8.4297,7.34 0,1.1 0.4687,1.72 2.3398,1.72 1.7188,0 2.6602,-0.31 7.0313,-2.03 z"
               style="fill:#000000;fill-opacity:1;fill-rule:nonzero;stroke:none"
               id="path550" /><path
               d="m 78.6719,1636.33 c 0.9375,-0.16 2.6562,-0.63 2.8086,-0.63 1.5703,0 2.1914,1.25 2.1914,2.35 0,1.25 -0.7813,2.34 -1.4024,2.81 -0.6289,0.31 -2.9687,0.78 -4.3789,1.25 -1.25,0.31 -4.5312,1.09 -6.25,1.41 -1.5625,0.46 -3.1211,0.93 -4.6914,1.25 -2.8086,0.78 -3.4297,0.93 -6.25,2.96 -2.8086,1.88 -6.3984,5.16 -6.3984,10.47 0,3.91 3.5898,4.07 4.8398,4.07 4.2188,0 11.8789,-2.97 14.8399,-4.07 2.039,-0.78 2.6601,-1.09 3.75,-1.09 3.75,0 5.9414,2.97 5.9414,6.56 0,7.03 -9.5313,10 -10.6211,10 -0.9414,0 -0.9414,-0.78 -0.9414,-1.09 0,-0.94 0.4687,-0.94 1.25,-1.25 5.6211,-1.56 8.4414,-4.69 8.4414,-7.35 0,-1.56 -0.9414,-1.87 -2.5,-1.87 -1.5703,0 -2.5,0.47 -5.6289,1.72 -2.1914,0.78 -9.5313,3.59 -13.4414,3.59 -6.711,0 -7.961,-5.31 -7.961,-9.06 0,-5.78 3.5899,-9.69 6.4024,-11.72 -4.8438,-0.47 -6.4024,-4.53 -6.4024,-7.5 0,-2.97 2.1797,-4.53 3.75,-5.47 2.6524,-1.56 6.5586,-2.5 7.0313,-2.5 0.7773,0 0.7773,0.94 0.7773,1.25 0,0.94 -0.1562,0.94 -2.0273,1.41 -4.0703,1.09 -7.5,2.5 -7.5,5.15 0,1.88 1.5586,2.35 3.4297,2.35 1.25,0 3.9101,-0.63 5.789,-1.25 1.8711,-0.47 4.6797,-1.1 6.25,-1.41 z"
               style="fill:#000000;fill-opacity:1;fill-rule:nonzero;stroke:none"
               id="path552" /><path
               d="m 56.3281,1707.62 c 0.4727,-2.5 2.3438,-3.44 3.9024,-3.44 1.8789,0 2.6601,1.41 2.6601,2.66 0,1.56 -1.0898,3.9 -4.5312,3.9 -4.6875,0 -6.0899,-5.31 -6.0899,-9.06 0,-10.47 9.6797,-20.16 19.3711,-20.16 5.9375,0 12.0313,4.07 12.0313,12.82 0,11.87 -6.8711,17.34 -7.8125,17.34 -0.4688,0 -1.25,-0.63 -1.25,-1.25 0,-0.31 0.1601,-0.47 0.7812,-1.09 6.4102,-5.47 6.4102,-13.6 6.4102,-14.85 0,-5 -3.4414,-7.19 -7.8203,-7.19 -1.8711,0 -9.5313,0.94 -14.3711,4.54 -3.4375,2.65 -5.3086,6.25 -5.3086,9.84 0,0.94 0.1484,4.22 2.0273,5.94 z"
               style="fill:#000000;fill-opacity:1;fill-rule:nonzero;stroke:none"
               id="path554" /><path
               d="m 271.719,1274.14 v 10.66"
               style="fill:none;stroke:#262626;stroke-width:2.83465;stroke-linecap:square;stroke-linejoin:round;stroke-miterlimit:10;stroke-dasharray:none;stroke-opacity:1"
               id="path556" /><g
               id="g566"
               transform="scale(10)"><text
                 transform="matrix(1,0,0,-1,18.2844,113.191)"
                 style="font-variant:normal;font-weight:normal;font-size:9px;font-family:ArialMT;-inkscape-font-specification:ArialMT;writing-mode:lr-tb;fill:#262626;fill-opacity:1;fill-rule:nonzero;stroke:none"
                 id="text570"><tspan
                   x="0 5.0040002"
                   y="0"
                   sodipodi:role="line"
                   id="tspan568">10</tspan></text><text
                 transform="matrix(1,0,0,-1,28.9512,117.636)"
                 style="font-variant:normal;font-weight:normal;font-size:7.2px;font-family:ArialMT;-inkscape-font-specification:ArialMT;writing-mode:lr-tb;fill:#262626;fill-opacity:1;fill-rule:nonzero;stroke:none"
                 id="text574"><tspan
                   x="0 2.3975999"
                   y="0"
                   sodipodi:role="line"
                   id="tspan572">-1</tspan></text><text
                 transform="matrix(1,0,0,-1,45.8398,113.191)"
                 style="font-variant:normal;font-weight:normal;font-size:9px;font-family:ArialMT;-inkscape-font-specification:ArialMT;writing-mode:lr-tb;fill:#262626;fill-opacity:1;fill-rule:nonzero;stroke:none"
                 id="text578"><tspan
                   x="0 5.0040002"
                   y="0"
                   sodipodi:role="line"
                   id="tspan576">10</tspan></text><text
                 transform="matrix(1,0,0,-1,56.5066,117.636)"
                 style="font-variant:normal;font-weight:normal;font-size:7.2px;font-family:ArialMT;-inkscape-font-specification:ArialMT;writing-mode:lr-tb;fill:#262626;fill-opacity:1;fill-rule:nonzero;stroke:none"
                 id="text582"><tspan
                   x="0"
                   y="0"
                   id="tspan580">0</tspan></text><text
                 transform="matrix(1,0,0,-1,72.5066,113.191)"
                 style="font-variant:normal;font-weight:normal;font-size:9px;font-family:ArialMT;-inkscape-font-specification:ArialMT;writing-mode:lr-tb;fill:#262626;fill-opacity:1;fill-rule:nonzero;stroke:none"
                 id="text586"><tspan
                   x="0 5.0040002"
                   y="0"
                   sodipodi:role="line"
                   id="tspan584">10</tspan></text><text
                 transform="matrix(1,0,0,-1,83.1734,117.636)"
                 style="font-variant:normal;font-weight:normal;font-size:7.2px;font-family:ArialMT;-inkscape-font-specification:ArialMT;writing-mode:lr-tb;fill:#262626;fill-opacity:1;fill-rule:nonzero;stroke:none"
                 id="text590"><tspan
                   x="0"
                   y="0"
                   id="tspan588">1</tspan></text><text
                 transform="matrix(1,0,0,-1,99.1734,113.191)"
                 style="font-variant:normal;font-weight:normal;font-size:9px;font-family:ArialMT;-inkscape-font-specification:ArialMT;writing-mode:lr-tb;fill:#262626;fill-opacity:1;fill-rule:nonzero;stroke:none"
                 id="text594"><tspan
                   x="0 5.0040002"
                   y="0"
                   sodipodi:role="line"
                   id="tspan592">10</tspan></text><text
                 transform="matrix(1,0,0,-1,109.84,117.636)"
                 style="font-variant:normal;font-weight:normal;font-size:7.2px;font-family:ArialMT;-inkscape-font-specification:ArialMT;writing-mode:lr-tb;fill:#262626;fill-opacity:1;fill-rule:nonzero;stroke:none"
                 id="text598"><tspan
                   x="0"
                   y="0"
                   id="tspan596">2</tspan></text><text
                 transform="matrix(1,0,0,-1,125.84,113.191)"
                 style="font-variant:normal;font-weight:normal;font-size:9px;font-family:ArialMT;-inkscape-font-specification:ArialMT;writing-mode:lr-tb;fill:#262626;fill-opacity:1;fill-rule:nonzero;stroke:none"
                 id="text602"><tspan
                   x="0 5.0040002"
                   y="0"
                   sodipodi:role="line"
                   id="tspan600">10</tspan></text><text
                 transform="matrix(1,0,0,-1,136.507,117.636)"
                 style="font-variant:normal;font-weight:normal;font-size:7.2px;font-family:ArialMT;-inkscape-font-specification:ArialMT;writing-mode:lr-tb;fill:#262626;fill-opacity:1;fill-rule:nonzero;stroke:none"
                 id="text606"><tspan
                   x="0"
                   y="0"
                   id="tspan604">3</tspan></text><text
                 transform="matrix(1,0,0,-1,19.0398,123.858)"
                 style="font-variant:normal;font-weight:normal;font-size:9px;font-family:ArialMT;-inkscape-font-specification:ArialMT;writing-mode:lr-tb;fill:#262626;fill-opacity:1;fill-rule:nonzero;stroke:none"
                 id="text614"><tspan
                   x="0"
                   y="0"
                   id="tspan608">0</tspan><tspan
                   x="-8 -2.9960001 -0.49399999"
                   y="-35.5555"
                   sodipodi:role="line"
                   id="tspan610">0.5</tspan><tspan
                   x="0"
                   y="-71.111397"
                   id="tspan612">1</tspan></text></g><path
               d="m 261.719,1274.14 10,-13.32 10,13.32 -10,13.28 z"
               style="fill:none;stroke:#0000b3;stroke-width:2.83465;stroke-linecap:butt;stroke-linejoin:miter;stroke-miterlimit:10;stroke-dasharray:none;stroke-opacity:1"
               id="path716" /><path
               d="m 718.871,1274.26 10,-13.28 10,13.28 -10,13.32 z"
               style="fill:none;stroke:#0000b3;stroke-width:2.83465;stroke-linecap:butt;stroke-linejoin:miter;stroke-miterlimit:10;stroke-dasharray:none;stroke-opacity:1"
               id="path760" /><path
               d="m 740.66,1274.49 10,-13.32 10,13.32 -10,13.28 z"
               style="fill:none;stroke:#0000b3;stroke-width:2.83465;stroke-linecap:butt;stroke-linejoin:miter;stroke-miterlimit:10;stroke-dasharray:none;stroke-opacity:1"
               id="path762" /><path
               d="m 762.422,1275.23 10,-13.28 10,13.28 -10,13.32 z"
               style="fill:none;stroke:#0000b3;stroke-width:2.83465;stroke-linecap:butt;stroke-linejoin:miter;stroke-miterlimit:10;stroke-dasharray:none;stroke-opacity:1"
               id="path764" /><path
               d="m 784.18,1276.09 10,-13.28 10,13.28 -10,13.32 z"
               style="fill:none;stroke:#0000b3;stroke-width:2.83465;stroke-linecap:butt;stroke-linejoin:miter;stroke-miterlimit:10;stroke-dasharray:none;stroke-opacity:1"
               id="path766" /><path
               d="m 795.078,1277.38 10,-13.32 10,13.32 -10,13.28 z"
               style="fill:none;stroke:#0000b3;stroke-width:2.83465;stroke-linecap:butt;stroke-linejoin:miter;stroke-miterlimit:10;stroke-dasharray:none;stroke-opacity:1"
               id="path768" /><path
               d="m 805.941,1279.26 10,-13.32 10,13.32 -10,13.28 z"
               style="fill:none;stroke:#0000b3;stroke-width:2.83465;stroke-linecap:butt;stroke-linejoin:miter;stroke-miterlimit:10;stroke-dasharray:none;stroke-opacity:1"
               id="path770" /><path
               d="m 827.73,1286.76 10,-13.28 10,13.28 -10,13.32 z"
               style="fill:none;stroke:#0000b3;stroke-width:2.83465;stroke-linecap:butt;stroke-linejoin:miter;stroke-miterlimit:10;stroke-dasharray:none;stroke-opacity:1"
               id="path772" /><path
               d="m 849.488,1326.52 10,-13.28 10,13.28 -10,13.32 z"
               style="fill:none;stroke:#0000b3;stroke-width:2.83465;stroke-linecap:butt;stroke-linejoin:miter;stroke-miterlimit:10;stroke-dasharray:none;stroke-opacity:1"
               id="path774" /><path
               d="m 871.25,1433.28 10,-13.28 10,13.28 -10,13.32 z"
               style="fill:none;stroke:#0000b3;stroke-width:2.83465;stroke-linecap:butt;stroke-linejoin:miter;stroke-miterlimit:10;stroke-dasharray:none;stroke-opacity:1"
               id="path776" /><path
               d="m 893.012,1645.55 10,-13.28 10,13.28 -10,13.32 z"
               style="fill:none;stroke:#0000b3;stroke-width:2.83465;stroke-linecap:butt;stroke-linejoin:miter;stroke-miterlimit:10;stroke-dasharray:none;stroke-opacity:1"
               id="path778" /><path
               d="m 914.801,1855.7 10,-13.32 10,13.32 -10,13.28 z"
               style="fill:none;stroke:#0000b3;stroke-width:2.83465;stroke-linecap:butt;stroke-linejoin:miter;stroke-miterlimit:10;stroke-dasharray:none;stroke-opacity:1"
               id="path780" /><path
               d="m 936.559,1936.13 10,-13.32 10,13.32 -10,13.28 z"
               style="fill:none;stroke:#0000b3;stroke-width:2.83465;stroke-linecap:butt;stroke-linejoin:miter;stroke-miterlimit:10;stroke-dasharray:none;stroke-opacity:1"
               id="path782" /><path
               d="m 958.32,1959.06 10,-13.32 10,13.32 -10,13.28 z"
               style="fill:none;stroke:#0000b3;stroke-width:2.83465;stroke-linecap:butt;stroke-linejoin:miter;stroke-miterlimit:10;stroke-dasharray:none;stroke-opacity:1"
               id="path784" /><path
               d="m 980.121,1968.52 10,-13.29 9.999,13.29 -9.999,13.32 z"
               style="fill:none;stroke:#0000b3;stroke-width:2.83465;stroke-linecap:butt;stroke-linejoin:miter;stroke-miterlimit:10;stroke-dasharray:none;stroke-opacity:1"
               id="path786" /><path
               d="m 1001.88,1973.79 10,-13.28 10,13.28 -10,13.32 z"
               style="fill:none;stroke:#0000b3;stroke-width:2.83465;stroke-linecap:butt;stroke-linejoin:miter;stroke-miterlimit:10;stroke-dasharray:none;stroke-opacity:1"
               id="path788" /><path
               d="m 1023.63,1976.33 10,-13.28 10,13.28 -10,13.32 z"
               style="fill:none;stroke:#0000b3;stroke-width:2.83465;stroke-linecap:butt;stroke-linejoin:miter;stroke-miterlimit:10;stroke-dasharray:none;stroke-opacity:1"
               id="path790" /><path
               d="m 1045.39,1977.85 10,-13.28 10,13.28 -10,13.32 z"
               style="fill:none;stroke:#0000b3;stroke-width:2.83465;stroke-linecap:butt;stroke-linejoin:miter;stroke-miterlimit:10;stroke-dasharray:none;stroke-opacity:1"
               id="path792" /><path
               d="m 1061.72,1978.87 10,-13.32 10,13.32 -10,13.28 z"
               style="fill:none;stroke:#0000b3;stroke-width:2.83465;stroke-linecap:butt;stroke-linejoin:miter;stroke-miterlimit:10;stroke-dasharray:none;stroke-opacity:1"
               id="path794" /><path
               d="m 1067.19,1979.18 10,-13.32 10,13.32 -10,13.28 z"
               style="fill:none;stroke:#0000b3;stroke-width:2.83465;stroke-linecap:butt;stroke-linejoin:miter;stroke-miterlimit:10;stroke-dasharray:none;stroke-opacity:1"
               id="path796" /><path
               d="m 1088.95,1980.12 10,-13.28 10,13.28 -10,13.32 z"
               style="fill:none;stroke:#0000b3;stroke-width:2.83465;stroke-linecap:butt;stroke-linejoin:miter;stroke-miterlimit:10;stroke-dasharray:none;stroke-opacity:1"
               id="path798" /><path
               d="m 1110.7,1980.94 10,-13.28 10,13.28 -10,13.32 z"
               style="fill:none;stroke:#0000b3;stroke-width:2.83465;stroke-linecap:butt;stroke-linejoin:miter;stroke-miterlimit:10;stroke-dasharray:none;stroke-opacity:1"
               id="path800" /><path
               d="m 1132.5,1981.48 10,-13.28 10,13.28 -10,13.32 z"
               style="fill:none;stroke:#0000b3;stroke-width:2.83465;stroke-linecap:butt;stroke-linejoin:miter;stroke-miterlimit:10;stroke-dasharray:none;stroke-opacity:1"
               id="path802" /><path
               d="m 1154.26,1981.99 10,-13.32 10,13.32 -10,13.28 z"
               style="fill:none;stroke:#0000b3;stroke-width:2.83465;stroke-linecap:butt;stroke-linejoin:miter;stroke-miterlimit:10;stroke-dasharray:none;stroke-opacity:1"
               id="path804" /><path
               d="m 271.719,1291.91 v -35.54 m -17.77,17.77 h 35.539"
               style="fill:none;stroke:#0000cc;stroke-width:2.83465;stroke-linecap:butt;stroke-linejoin:miter;stroke-miterlimit:10;stroke-dasharray:none;stroke-opacity:1"
               id="path808" /><path
               d="m 271.719,1274.14 h 457.152 l 21.789,0.04 21.762,0.2 21.758,0.66 10.898,0.9 10.863,1.72 21.789,9.92 21.758,36.01 21.762,110.28 21.762,215.23 21.789,199.18 21.758,91.02 21.761,28.28 21.801,7.69 21.759,2 21.75,0.54 21.76,0.12 16.33,0.04 h 114.3"
               style="fill:none;stroke:#0000b3;stroke-width:2.83465;stroke-linecap:butt;stroke-linejoin:round;stroke-miterlimit:10;stroke-dasharray:none;stroke-opacity:1"
               id="path4028" /><path
               d="m 271.719,1985.23 v -10.66"
               style="fill:none;stroke:#262626;stroke-width:5;stroke-linecap:square;stroke-linejoin:round;stroke-miterlimit:10;stroke-dasharray:none;stroke-opacity:1"
               id="path4112" /><path
               d="m 271.719,1985.23 v -5.31"
               style="fill:none;stroke:#262626;stroke-width:5;stroke-linecap:square;stroke-linejoin:round;stroke-miterlimit:10;stroke-dasharray:none;stroke-opacity:1"
               id="path4116" /><path
               d="m 271.719,1629.69 h 10.66"
               style="fill:none;stroke:#262626;stroke-width:5;stroke-linecap:square;stroke-linejoin:round;stroke-miterlimit:10;stroke-dasharray:none;stroke-opacity:1"
               id="path4118" /><path
               d="m 271.719,1985.23 h 10.66"
               style="fill:none;stroke:#262626;stroke-width:5;stroke-linecap:square;stroke-linejoin:round;stroke-miterlimit:10;stroke-dasharray:none;stroke-opacity:1"
               id="path4120" /><path
               d="m 271.719,1274.14 v 5.31"
               style="fill:none;stroke:#262626;stroke-width:5;stroke-linecap:square;stroke-linejoin:round;stroke-miterlimit:10;stroke-dasharray:none;stroke-opacity:1"
               id="path4126" /><path
               d="m 271.719,1274.14 h 10.66"
               style="fill:none;stroke:#262626;stroke-width:5;stroke-linecap:square;stroke-linejoin:round;stroke-miterlimit:10;stroke-dasharray:none;stroke-opacity:1"
               id="path4200" /><path
               d="m 271.719,1274.14 v 711.09"
               style="fill:none;stroke:#262626;stroke-width:5;stroke-linecap:square;stroke-linejoin:round;stroke-miterlimit:10;stroke-dasharray:none;stroke-opacity:1"
               id="path4204" /></g></g></g></g></g></svg>
