<?xml version="1.0" encoding="utf-8"?>
<svg xmlns="http://www.w3.org/2000/svg" xmlns:xlink="http://www.w3.org/1999/xlink" width="1600" height="800" viewBox="0 0 6400 3200">
<defs>
  <clipPath id="clip810">
    <rect x="0" y="0" width="6400" height="3200"/>
  </clipPath>
</defs>
<path clip-path="url(#clip810)" d="
M0 3200 L6400 3200 L6400 0 L0 0  Z
  " fill="#ffffff" fill-rule="evenodd" fill-opacity="1"/>
<defs>
  <clipPath id="clip811">
    <rect x="1280" y="0" width="4481" height="3200"/>
  </clipPath>
</defs>
<defs>
  <clipPath id="clip812">
    <rect x="3746" y="75" width="2579" height="2907"/>
  </clipPath>
</defs>
<path clip-path="url(#clip810)" d="
M545.232 2981.66 L3123.48 2981.66 L3123.48 75.5906 L545.232 75.5906  Z
  " fill="#ffffff" fill-rule="evenodd" fill-opacity="1"/>
<defs>
  <clipPath id="clip813">
    <rect x="545" y="75" width="2579" height="2907"/>
  </clipPath>
</defs>
<polyline clip-path="url(#clip813)" style="stroke:#222255; stroke-width:5.12; stroke-opacity:0.25; fill:none" points="
  1060.44,2981.66 1060.44,75.5906 
  "/>
<polyline clip-path="url(#clip813)" style="stroke:#222255; stroke-width:5.12; stroke-opacity:0.25; fill:none" points="
  2608.27,2981.66 2608.27,75.5906 
  "/>
<polyline clip-path="url(#clip813)" style="stroke:#222255; stroke-width:3.2; stroke-opacity:0.05; fill:none" points="
  750.873,2981.66 750.873,75.5906 
  "/>
<polyline clip-path="url(#clip813)" style="stroke:#222255; stroke-width:3.2; stroke-opacity:0.05; fill:none" points="
  1370.01,2981.66 1370.01,75.5906 
  "/>
<polyline clip-path="url(#clip813)" style="stroke:#222255; stroke-width:3.2; stroke-opacity:0.05; fill:none" points="
  1679.57,2981.66 1679.57,75.5906 
  "/>
<polyline clip-path="url(#clip813)" style="stroke:#222255; stroke-width:3.2; stroke-opacity:0.05; fill:none" points="
  1989.14,2981.66 1989.14,75.5906 
  "/>
<polyline clip-path="url(#clip813)" style="stroke:#222255; stroke-width:3.2; stroke-opacity:0.05; fill:none" points="
  2298.7,2981.66 2298.7,75.5906 
  "/>
<polyline clip-path="url(#clip813)" style="stroke:#222255; stroke-width:3.2; stroke-opacity:0.05; fill:none" points="
  2917.84,2981.66 2917.84,75.5906 
  "/>
<polyline clip-path="url(#clip810)" style="stroke:#222255; stroke-width:6.4; stroke-opacity:0; fill:none" points="
  1060.44,2981.66 1060.44,2946.78 
  "/>
<polyline clip-path="url(#clip810)" style="stroke:#222255; stroke-width:6.4; stroke-opacity:0; fill:none" points="
  2608.27,2981.66 2608.27,2946.78 
  "/>
<polyline clip-path="url(#clip810)" style="stroke:#222255; stroke-width:6.4; stroke-opacity:0; fill:none" points="
  750.873,2981.66 750.873,2964.22 
  "/>
<polyline clip-path="url(#clip810)" style="stroke:#222255; stroke-width:6.4; stroke-opacity:0; fill:none" points="
  1370.01,2981.66 1370.01,2964.22 
  "/>
<polyline clip-path="url(#clip810)" style="stroke:#222255; stroke-width:6.4; stroke-opacity:0; fill:none" points="
  1679.57,2981.66 1679.57,2964.22 
  "/>
<polyline clip-path="url(#clip810)" style="stroke:#222255; stroke-width:6.4; stroke-opacity:0; fill:none" points="
  1989.14,2981.66 1989.14,2964.22 
  "/>
<polyline clip-path="url(#clip810)" style="stroke:#222255; stroke-width:6.4; stroke-opacity:0; fill:none" points="
  2298.7,2981.66 2298.7,2964.22 
  "/>
<polyline clip-path="url(#clip810)" style="stroke:#222255; stroke-width:6.4; stroke-opacity:0; fill:none" points="
  2917.84,2981.66 2917.84,2964.22 
  "/>
<path clip-path="url(#clip810)" d="M 0 0 M1029.44 3050.06 L1029.44 3070.84 L1038.85 3070.84 Q1044.07 3070.84 1046.92 3068.14 Q1049.77 3065.44 1049.77 3060.44 Q1049.77 3055.47 1046.92 3052.77 Q1044.07 3050.06 1038.85 3050.06 L1029.44 3050.06 M1021.96 3043.92 L1038.85 3043.92 Q1048.14 3043.92 1052.88 3048.14 Q1057.66 3052.32 1057.66 3060.44 Q1057.66 3068.62 1052.88 3072.81 Q1048.14 3076.99 1038.85 3076.99 L1029.44 3076.99 L1029.44 3099.21 L1021.96 3099.21 L1021.96 3043.92 Z" fill="#000000" fill-rule="evenodd" fill-opacity="1" /><path clip-path="url(#clip810)" d="M 0 0 M1067.07 3092.92 L1079.29 3092.92 L1079.29 3050.73 L1065.99 3053.4 L1065.99 3046.58 L1079.22 3043.92 L1086.7 3043.92 L1086.7 3092.92 L1098.92 3092.92 L1098.92 3099.21 L1067.07 3099.21 L1067.07 3092.92 Z" fill="#000000" fill-rule="evenodd" fill-opacity="1" /><path clip-path="url(#clip810)" d="M 0 0 M2577.57 3050.06 L2577.57 3070.84 L2586.97 3070.84 Q2592.2 3070.84 2595.05 3068.14 Q2597.9 3065.44 2597.9 3060.44 Q2597.9 3055.47 2595.05 3052.77 Q2592.2 3050.06 2586.97 3050.06 L2577.57 3050.06 M2570.08 3043.92 L2586.97 3043.92 Q2596.27 3043.92 2601.01 3048.14 Q2605.79 3052.32 2605.79 3060.44 Q2605.79 3068.62 2601.01 3072.81 Q2596.27 3076.99 2586.97 3076.99 L2577.57 3076.99 L2577.57 3099.21 L2570.08 3099.21 L2570.08 3043.92 Z" fill="#000000" fill-rule="evenodd" fill-opacity="1" /><path clip-path="url(#clip810)" d="M 0 0 M2620.34 3092.92 L2646.45 3092.92 L2646.45 3099.21 L2611.34 3099.21 L2611.34 3092.92 Q2615.6 3088.51 2622.94 3081.1 Q2630.31 3073.66 2632.2 3071.51 Q2635.79 3067.47 2637.2 3064.69 Q2638.64 3061.88 2638.64 3059.18 Q2638.64 3054.77 2635.53 3051.99 Q2632.45 3049.21 2627.49 3049.21 Q2623.97 3049.21 2620.05 3050.44 Q2616.16 3051.66 2611.71 3054.14 L2611.71 3046.58 Q2616.23 3044.77 2620.16 3043.84 Q2624.08 3042.92 2627.34 3042.92 Q2635.94 3042.92 2641.05 3047.21 Q2646.16 3051.51 2646.16 3058.69 Q2646.16 3062.1 2644.86 3065.18 Q2643.6 3068.21 2640.23 3072.36 Q2639.31 3073.43 2634.34 3078.58 Q2629.38 3083.69 2620.34 3092.92 Z" fill="#000000" fill-rule="evenodd" fill-opacity="1" /><polyline clip-path="url(#clip813)" style="stroke:#222255; stroke-width:5.12; stroke-opacity:0.25; fill:none" points="
  545.232,2625.25 3123.48,2625.25 
  "/>
<polyline clip-path="url(#clip813)" style="stroke:#222255; stroke-width:5.12; stroke-opacity:0.25; fill:none" points="
  545.232,1802.78 3123.48,1802.78 
  "/>
<polyline clip-path="url(#clip813)" style="stroke:#222255; stroke-width:5.12; stroke-opacity:0.25; fill:none" points="
  545.232,980.309 3123.48,980.309 
  "/>
<polyline clip-path="url(#clip813)" style="stroke:#222255; stroke-width:5.12; stroke-opacity:0.25; fill:none" points="
  545.232,157.838 3123.48,157.838 
  "/>
<polyline clip-path="url(#clip813)" style="stroke:#222255; stroke-width:3.2; stroke-opacity:0.05; fill:none" points="
  545.232,2954.24 3123.48,2954.24 
  "/>
<polyline clip-path="url(#clip813)" style="stroke:#222255; stroke-width:3.2; stroke-opacity:0.05; fill:none" points="
  545.232,2789.75 3123.48,2789.75 
  "/>
<polyline clip-path="url(#clip813)" style="stroke:#222255; stroke-width:3.2; stroke-opacity:0.05; fill:none" points="
  545.232,2460.76 3123.48,2460.76 
  "/>
<polyline clip-path="url(#clip813)" style="stroke:#222255; stroke-width:3.2; stroke-opacity:0.05; fill:none" points="
  545.232,2296.26 3123.48,2296.26 
  "/>
<polyline clip-path="url(#clip813)" style="stroke:#222255; stroke-width:3.2; stroke-opacity:0.05; fill:none" points="
  545.232,2131.77 3123.48,2131.77 
  "/>
<polyline clip-path="url(#clip813)" style="stroke:#222255; stroke-width:3.2; stroke-opacity:0.05; fill:none" points="
  545.232,1967.28 3123.48,1967.28 
  "/>
<polyline clip-path="url(#clip813)" style="stroke:#222255; stroke-width:3.2; stroke-opacity:0.05; fill:none" points="
  545.232,1638.29 3123.48,1638.29 
  "/>
<polyline clip-path="url(#clip813)" style="stroke:#222255; stroke-width:3.2; stroke-opacity:0.05; fill:none" points="
  545.232,1473.79 3123.48,1473.79 
  "/>
<polyline clip-path="url(#clip813)" style="stroke:#222255; stroke-width:3.2; stroke-opacity:0.05; fill:none" points="
  545.232,1309.3 3123.48,1309.3 
  "/>
<polyline clip-path="url(#clip813)" style="stroke:#222255; stroke-width:3.2; stroke-opacity:0.05; fill:none" points="
  545.232,1144.8 3123.48,1144.8 
  "/>
<polyline clip-path="url(#clip813)" style="stroke:#222255; stroke-width:3.2; stroke-opacity:0.05; fill:none" points="
  545.232,815.815 3123.48,815.815 
  "/>
<polyline clip-path="url(#clip813)" style="stroke:#222255; stroke-width:3.2; stroke-opacity:0.05; fill:none" points="
  545.232,651.321 3123.48,651.321 
  "/>
<polyline clip-path="url(#clip813)" style="stroke:#222255; stroke-width:3.2; stroke-opacity:0.05; fill:none" points="
  545.232,486.826 3123.48,486.826 
  "/>
<polyline clip-path="url(#clip813)" style="stroke:#222255; stroke-width:3.2; stroke-opacity:0.05; fill:none" points="
  545.232,322.332 3123.48,322.332 
  "/>
<polyline clip-path="url(#clip810)" style="stroke:#222255; stroke-width:6.4; stroke-opacity:0; fill:none" points="
  545.232,2625.25 576.171,2625.25 
  "/>
<polyline clip-path="url(#clip810)" style="stroke:#222255; stroke-width:6.4; stroke-opacity:0; fill:none" points="
  545.232,1802.78 576.171,1802.78 
  "/>
<polyline clip-path="url(#clip810)" style="stroke:#222255; stroke-width:6.4; stroke-opacity:0; fill:none" points="
  545.232,980.309 576.171,980.309 
  "/>
<polyline clip-path="url(#clip810)" style="stroke:#222255; stroke-width:6.4; stroke-opacity:0; fill:none" points="
  545.232,157.838 576.171,157.838 
  "/>
<polyline clip-path="url(#clip810)" style="stroke:#222255; stroke-width:6.4; stroke-opacity:0; fill:none" points="
  545.232,2954.24 560.702,2954.24 
  "/>
<polyline clip-path="url(#clip810)" style="stroke:#222255; stroke-width:6.4; stroke-opacity:0; fill:none" points="
  545.232,2789.75 560.702,2789.75 
  "/>
<polyline clip-path="url(#clip810)" style="stroke:#222255; stroke-width:6.4; stroke-opacity:0; fill:none" points="
  545.232,2460.76 560.702,2460.76 
  "/>
<polyline clip-path="url(#clip810)" style="stroke:#222255; stroke-width:6.4; stroke-opacity:0; fill:none" points="
  545.232,2296.26 560.702,2296.26 
  "/>
<polyline clip-path="url(#clip810)" style="stroke:#222255; stroke-width:6.4; stroke-opacity:0; fill:none" points="
  545.232,2131.77 560.702,2131.77 
  "/>
<polyline clip-path="url(#clip810)" style="stroke:#222255; stroke-width:6.4; stroke-opacity:0; fill:none" points="
  545.232,1967.28 560.702,1967.28 
  "/>
<polyline clip-path="url(#clip810)" style="stroke:#222255; stroke-width:6.4; stroke-opacity:0; fill:none" points="
  545.232,1638.29 560.702,1638.29 
  "/>
<polyline clip-path="url(#clip810)" style="stroke:#222255; stroke-width:6.4; stroke-opacity:0; fill:none" points="
  545.232,1473.79 560.702,1473.79 
  "/>
<polyline clip-path="url(#clip810)" style="stroke:#222255; stroke-width:6.4; stroke-opacity:0; fill:none" points="
  545.232,1309.3 560.702,1309.3 
  "/>
<polyline clip-path="url(#clip810)" style="stroke:#222255; stroke-width:6.4; stroke-opacity:0; fill:none" points="
  545.232,1144.8 560.702,1144.8 
  "/>
<polyline clip-path="url(#clip810)" style="stroke:#222255; stroke-width:6.4; stroke-opacity:0; fill:none" points="
  545.232,815.815 560.702,815.815 
  "/>
<polyline clip-path="url(#clip810)" style="stroke:#222255; stroke-width:6.4; stroke-opacity:0; fill:none" points="
  545.232,651.321 560.702,651.321 
  "/>
<polyline clip-path="url(#clip810)" style="stroke:#222255; stroke-width:6.4; stroke-opacity:0; fill:none" points="
  545.232,486.826 560.702,486.826 
  "/>
<polyline clip-path="url(#clip810)" style="stroke:#222255; stroke-width:6.4; stroke-opacity:0; fill:none" points="
  545.232,322.332 560.702,322.332 
  "/>
<path clip-path="url(#clip810)" d="M 0 0 M300.974 2625.98 L348.455 2625.98 L348.455 2632.27 L300.974 2632.27 L300.974 2625.98 Z" fill="#000000" fill-rule="evenodd" fill-opacity="1" /><path clip-path="url(#clip810)" d="M 0 0 M372.566 2602.53 Q366.788 2602.53 363.863 2608.23 Q360.974 2613.9 360.974 2625.31 Q360.974 2636.68 363.863 2642.38 Q366.788 2648.05 372.566 2648.05 Q378.381 2648.05 381.27 2642.38 Q384.196 2636.68 384.196 2625.31 Q384.196 2613.9 381.27 2608.23 Q378.381 2602.53 372.566 2602.53 M372.566 2596.6 Q381.862 2596.6 386.751 2603.98 Q391.677 2611.31 391.677 2625.31 Q391.677 2639.27 386.751 2646.64 Q381.862 2653.98 372.566 2653.98 Q363.27 2653.98 358.344 2646.64 Q353.455 2639.27 353.455 2625.31 Q353.455 2611.31 358.344 2603.98 Q363.27 2596.6 372.566 2596.6 Z" fill="#000000" fill-rule="evenodd" fill-opacity="1" /><path clip-path="url(#clip810)" d="M 0 0 M399.788 2643.49 L407.603 2643.49 L407.603 2652.9 L399.788 2652.9 L399.788 2643.49 Z" fill="#000000" fill-rule="evenodd" fill-opacity="1" /><path clip-path="url(#clip810)" d="M 0 0 M415.788 2597.6 L445.158 2597.6 L445.158 2603.9 L422.64 2603.9 L422.64 2617.46 Q424.27 2616.9 425.899 2616.64 Q427.529 2616.35 429.158 2616.35 Q438.418 2616.35 443.825 2621.42 Q449.232 2626.49 449.232 2635.16 Q449.232 2644.09 443.677 2649.05 Q438.121 2653.98 428.01 2653.98 Q424.529 2653.98 420.899 2653.38 Q417.307 2652.79 413.455 2651.6 L413.455 2644.09 Q416.788 2645.9 420.344 2646.79 Q423.899 2647.68 427.862 2647.68 Q434.27 2647.68 438.01 2644.31 Q441.751 2640.94 441.751 2635.16 Q441.751 2629.38 438.01 2626.01 Q434.27 2622.64 427.862 2622.64 Q424.862 2622.64 421.862 2623.31 Q418.899 2623.98 415.788 2625.38 L415.788 2597.6 Z" fill="#000000" fill-rule="evenodd" fill-opacity="1" /><path clip-path="url(#clip810)" d="M 0 0 M370.974 1780.06 Q365.196 1780.06 362.27 1785.76 Q359.381 1791.43 359.381 1802.84 Q359.381 1814.21 362.27 1819.91 Q365.196 1825.58 370.974 1825.58 Q376.788 1825.58 379.677 1819.91 Q382.603 1814.21 382.603 1802.84 Q382.603 1791.43 379.677 1785.76 Q376.788 1780.06 370.974 1780.06 M370.974 1774.13 Q380.27 1774.13 385.159 1781.5 Q390.085 1788.84 390.085 1802.84 Q390.085 1816.8 385.159 1824.17 Q380.27 1831.5 370.974 1831.5 Q361.677 1831.5 356.751 1824.17 Q351.863 1816.8 351.863 1802.84 Q351.863 1788.84 356.751 1781.5 Q361.677 1774.13 370.974 1774.13 Z" fill="#000000" fill-rule="evenodd" fill-opacity="1" /><path clip-path="url(#clip810)" d="M 0 0 M398.196 1821.02 L406.01 1821.02 L406.01 1830.43 L398.196 1830.43 L398.196 1821.02 Z" fill="#000000" fill-rule="evenodd" fill-opacity="1" /><path clip-path="url(#clip810)" d="M 0 0 M430.121 1780.06 Q424.344 1780.06 421.418 1785.76 Q418.529 1791.43 418.529 1802.84 Q418.529 1814.21 421.418 1819.91 Q424.344 1825.58 430.121 1825.58 Q435.936 1825.58 438.825 1819.91 Q441.751 1814.21 441.751 1802.84 Q441.751 1791.43 438.825 1785.76 Q435.936 1780.06 430.121 1780.06 M430.121 1774.13 Q439.418 1774.13 444.307 1781.5 Q449.232 1788.84 449.232 1802.84 Q449.232 1816.8 444.307 1824.17 Q439.418 1831.5 430.121 1831.5 Q420.825 1831.5 415.899 1824.17 Q411.01 1816.8 411.01 1802.84 Q411.01 1788.84 415.899 1781.5 Q420.825 1774.13 430.121 1774.13 Z" fill="#000000" fill-rule="evenodd" fill-opacity="1" /><path clip-path="url(#clip810)" d="M 0 0 M372.566 957.587 Q366.788 957.587 363.863 963.291 Q360.974 968.958 360.974 980.365 Q360.974 991.735 363.863 997.439 Q366.788 1003.11 372.566 1003.11 Q378.381 1003.11 381.27 997.439 Q384.196 991.735 384.196 980.365 Q384.196 968.958 381.27 963.291 Q378.381 957.587 372.566 957.587 M372.566 951.661 Q381.862 951.661 386.751 959.032 Q391.677 966.365 391.677 980.365 Q391.677 994.328 386.751 1001.7 Q381.862 1009.03 372.566 1009.03 Q363.27 1009.03 358.344 1001.7 Q353.455 994.328 353.455 980.365 Q353.455 966.365 358.344 959.032 Q363.27 951.661 372.566 951.661 Z" fill="#000000" fill-rule="evenodd" fill-opacity="1" /><path clip-path="url(#clip810)" d="M 0 0 M399.788 998.55 L407.603 998.55 L407.603 1007.96 L399.788 1007.96 L399.788 998.55 Z" fill="#000000" fill-rule="evenodd" fill-opacity="1" /><path clip-path="url(#clip810)" d="M 0 0 M415.788 952.661 L445.158 952.661 L445.158 958.958 L422.64 958.958 L422.64 972.513 Q424.27 971.958 425.899 971.698 Q427.529 971.402 429.158 971.402 Q438.418 971.402 443.825 976.476 Q449.232 981.55 449.232 990.217 Q449.232 999.143 443.677 1004.11 Q438.121 1009.03 428.01 1009.03 Q424.529 1009.03 420.899 1008.44 Q417.307 1007.85 413.455 1006.66 L413.455 999.143 Q416.788 1000.96 420.344 1001.85 Q423.899 1002.74 427.862 1002.74 Q434.27 1002.74 438.01 999.365 Q441.751 995.995 441.751 990.217 Q441.751 984.439 438.01 981.069 Q434.27 977.698 427.862 977.698 Q424.862 977.698 421.862 978.365 Q418.899 979.032 415.788 980.439 L415.788 952.661 Z" fill="#000000" fill-rule="evenodd" fill-opacity="1" /><path clip-path="url(#clip810)" d="M 0 0 M358.233 179.189 L370.455 179.189 L370.455 137.005 L357.159 139.671 L357.159 132.856 L370.381 130.19 L377.862 130.19 L377.862 179.189 L390.085 179.189 L390.085 185.486 L358.233 185.486 L358.233 179.189 Z" fill="#000000" fill-rule="evenodd" fill-opacity="1" /><path clip-path="url(#clip810)" d="M 0 0 M398.196 176.078 L406.01 176.078 L406.01 185.486 L398.196 185.486 L398.196 176.078 Z" fill="#000000" fill-rule="evenodd" fill-opacity="1" /><path clip-path="url(#clip810)" d="M 0 0 M430.121 135.116 Q424.344 135.116 421.418 140.819 Q418.529 146.486 418.529 157.893 Q418.529 169.264 421.418 174.967 Q424.344 180.634 430.121 180.634 Q435.936 180.634 438.825 174.967 Q441.751 169.264 441.751 157.893 Q441.751 146.486 438.825 140.819 Q435.936 135.116 430.121 135.116 M430.121 129.19 Q439.418 129.19 444.307 136.56 Q449.232 143.893 449.232 157.893 Q449.232 171.856 444.307 179.227 Q439.418 186.56 430.121 186.56 Q420.825 186.56 415.899 179.227 Q411.01 171.856 411.01 157.893 Q411.01 143.893 415.899 136.56 Q420.825 129.19 430.121 129.19 Z" fill="#000000" fill-rule="evenodd" fill-opacity="1" /><path clip-path="url(#clip810)" d="M 0 0 M131.92 1638.22 Q139.546 1638.22 146.709 1642.13 Q153.872 1646 158.2 1652.08 Q162.529 1658.11 162.529 1664.19 Q162.529 1671.04 155.417 1674.6 Q181.234 1681.04 181.904 1681.4 Q184.119 1682.89 184.119 1685.06 Q184.119 1686.4 183.295 1687.22 Q182.522 1688.05 181.285 1688.05 Q180.873 1687.99 179.585 1687.69 L138.104 1677.38 Q128.468 1675.01 121.614 1667.85 Q114.709 1660.63 114.709 1652.9 Q114.709 1646.77 119.295 1642.49 Q123.881 1638.22 131.92 1638.22 M127.385 1645.79 Q122.233 1645.79 119.656 1647.85 Q117.028 1649.91 117.028 1653.11 Q117.028 1656.05 119.398 1659.6 Q121.769 1663.11 127.025 1666.2 Q130.065 1667.85 133.827 1669.03 Q137.588 1670.22 146.864 1672.54 Q150.574 1673.36 150.78 1673.36 Q151.192 1673.36 152.12 1673.15 Q153.047 1672.9 154.49 1672.28 Q155.881 1671.61 157.118 1670.68 Q158.355 1669.75 159.282 1668.05 Q160.158 1666.35 160.158 1664.29 Q160.158 1661.1 157.582 1657.7 Q154.954 1654.24 150.161 1651.72 Q146.297 1649.61 139.031 1647.7 Q131.714 1645.79 127.385 1645.79 Z" fill="#000000" fill-rule="evenodd" fill-opacity="1" /><path clip-path="url(#clip810)" d="M 0 0 M164.479 1553.35 Q165.525 1553.35 165.741 1553.82 Q165.957 1554.25 165.957 1555.69 Q165.957 1557.39 166.102 1558.43 Q166.21 1559.48 166.39 1560.13 Q166.535 1560.78 167.04 1561.18 Q167.545 1561.54 167.977 1561.68 Q168.374 1561.83 169.348 1562.08 L208.701 1571.89 Q210.036 1572.25 210.505 1572.25 Q210.974 1572.25 211.262 1571.96 Q211.551 1571.64 211.695 1570.84 Q211.803 1570.05 211.839 1569.44 Q211.839 1568.79 211.839 1567.45 Q211.839 1565.79 212.128 1565.54 Q212.308 1565.4 212.633 1565.4 Q213.318 1565.4 213.679 1565.68 Q214.003 1565.97 214.076 1566.23 Q214.112 1566.44 214.112 1566.8 Q214.112 1568.32 214.003 1571.42 Q213.895 1574.52 213.895 1576.04 L214.112 1585.2 Q214.112 1586.28 213.21 1586.28 Q212.525 1586.28 212.236 1585.99 Q211.911 1585.7 211.875 1585.38 Q211.839 1585.05 211.839 1584.23 Q211.839 1581.27 211.515 1580 Q211.19 1578.71 210.613 1578.35 Q210 1577.95 208.34 1577.52 L166.03 1566.95 L166.03 1567.02 L212.777 1596.85 L213.102 1597.07 Q213.39 1597.28 213.498 1597.35 Q213.571 1597.43 213.787 1597.64 Q213.967 1597.82 214.04 1598.04 Q214.112 1598.22 214.112 1598.47 Q214.112 1598.91 213.823 1599.16 Q213.535 1599.37 213.318 1599.45 Q213.066 1599.48 212.416 1599.59 L166.607 1605.94 L166.607 1606.01 L206.861 1616.08 Q207.98 1616.36 208.557 1616.36 Q210.036 1616.36 210.937 1615.32 Q211.803 1614.24 211.839 1611.35 Q211.839 1610.02 212.633 1610.02 Q214.112 1610.02 214.112 1611.35 Q214.112 1612.58 214.003 1615.14 Q213.895 1617.7 213.895 1618.96 Q213.895 1620.19 214.003 1622.68 Q214.112 1625.13 214.112 1626.32 Q214.112 1627.37 213.21 1627.37 Q211.839 1627.37 211.839 1626.03 Q211.767 1623.87 211.334 1622.39 Q210.901 1620.91 210.072 1620.08 Q209.242 1619.21 208.413 1618.82 Q207.547 1618.38 206.284 1618.06 L168.663 1608.68 Q167.472 1608.39 167.292 1608.39 Q166.679 1608.39 166.462 1608.75 Q166.21 1609.08 166.102 1610.02 Q165.957 1611.82 165.957 1613.19 Q165.957 1614.09 165.921 1614.45 Q165.885 1614.78 165.705 1615.07 Q165.489 1615.32 165.056 1615.32 Q164.37 1615.32 164.082 1615.03 Q163.757 1614.7 163.721 1614.34 Q163.649 1613.98 163.649 1613.12 L163.649 1602.98 Q163.649 1601.5 163.901 1601.18 Q164.118 1600.85 165.344 1600.71 L207.15 1594.94 L165.056 1567.96 Q164.01 1567.27 163.829 1566.91 Q163.649 1566.55 163.649 1565.11 L163.649 1555.33 Q163.649 1554.54 163.685 1554.21 Q163.721 1553.89 163.901 1553.64 Q164.082 1553.35 164.479 1553.35 Z" fill="#000000" fill-rule="evenodd" fill-opacity="1" /><path clip-path="url(#clip810)" d="M 0 0 M203.543 1522.48 Q208.196 1523.46 210.865 1524.72 Q214.941 1526.74 214.941 1530.17 Q214.941 1532.76 213.354 1534.6 Q211.767 1536.44 209.386 1536.87 Q214.941 1541.6 214.941 1546.51 Q214.941 1550.83 211.659 1553.58 Q208.34 1556.32 203.11 1556.32 Q197.844 1556.32 192.794 1553.72 Q187.744 1551.09 184.606 1546.94 Q181.468 1542.79 181.468 1538.53 Q181.468 1534.03 186.193 1531.72 Q184.895 1531.54 183.921 1530.71 Q182.947 1529.88 182.947 1528.61 Q182.947 1527.64 183.488 1527.06 Q183.993 1526.49 184.931 1526.49 Q185.399 1526.49 187.456 1526.99 L197.772 1529.66 L204.445 1531.28 Q206.898 1531.9 207.799 1532.08 Q208.701 1532.22 209.891 1532.22 Q213.282 1532.22 213.282 1530.02 Q213.282 1528.94 212.597 1528.07 Q211.911 1527.21 210.469 1526.52 Q209.026 1525.84 207.691 1525.4 Q206.32 1524.97 204.156 1524.39 Q203.29 1524.21 203.074 1524.07 Q202.822 1523.89 202.822 1523.38 Q202.822 1522.48 203.543 1522.48 M189.584 1532.62 Q189.259 1532.62 188.357 1532.87 Q187.456 1533.12 186.193 1533.7 Q184.931 1534.28 184.029 1535.54 Q183.091 1536.77 183.091 1538.43 Q183.091 1540.66 185.003 1543.01 Q186.914 1545.32 190.161 1547.01 Q192.758 1548.31 198.205 1549.72 Q203.651 1551.09 206.356 1551.09 Q208.016 1551.09 209.495 1550.73 Q210.937 1550.33 212.128 1549.21 Q213.282 1548.09 213.282 1546.36 Q213.282 1542.14 208.052 1537.99 Q207.15 1537.2 206.789 1537.02 Q206.393 1536.8 205.31 1536.51 L190.846 1532.83 Q189.764 1532.62 189.584 1532.62 Z" fill="#000000" fill-rule="evenodd" fill-opacity="1" /><path clip-path="url(#clip810)" d="M 0 0 M186.265 1487.49 Q188.177 1487.49 189.403 1488.75 Q190.63 1489.98 190.63 1491.57 Q190.63 1492.94 189.836 1493.66 Q189.043 1494.38 188.033 1494.38 Q186.59 1494.38 185.399 1493.26 Q184.209 1492.14 183.957 1490.52 Q183.091 1491.71 183.091 1493.62 Q183.091 1496.76 185.508 1499.54 Q186.626 1500.76 188.682 1502.1 Q190.702 1503.43 191.568 1503.69 L201.198 1506.03 Q202.281 1506.25 207.475 1507.58 Q212.633 1508.88 212.849 1508.99 Q213.859 1509.35 214.4 1510.14 Q214.941 1510.94 214.941 1511.73 Q214.941 1512.63 214.4 1513.24 Q213.859 1513.86 212.921 1513.86 Q212.777 1513.86 212.236 1513.75 Q211.695 1513.64 210.937 1513.46 Q210.18 1513.28 209.747 1513.21 L192.686 1508.92 Q189.584 1508.12 188.61 1507.94 Q187.6 1507.73 186.482 1507.73 Q184.534 1507.73 183.812 1508.34 Q183.091 1508.95 183.091 1510.03 Q183.091 1511.91 185.327 1513.14 Q187.564 1514.36 191.892 1515.41 Q193.083 1515.73 193.335 1515.95 Q193.588 1516.13 193.588 1516.67 Q193.551 1517.57 192.83 1517.57 Q192.65 1517.57 191.495 1517.28 Q190.305 1517 188.574 1516.45 Q186.806 1515.88 185.688 1515.26 Q184.931 1514.9 184.426 1514.58 Q183.921 1514.25 183.127 1513.61 Q182.333 1512.96 181.901 1511.98 Q181.468 1511.01 181.468 1509.82 Q181.468 1507.22 183.055 1505.38 Q184.642 1503.51 187.131 1503.07 Q185.832 1502.17 184.714 1501.05 Q183.56 1499.93 182.514 1497.88 Q181.468 1495.82 181.468 1493.62 Q181.468 1490.88 182.875 1489.19 Q184.245 1487.49 186.265 1487.49 Z" fill="#000000" fill-rule="evenodd" fill-opacity="1" /><path clip-path="url(#clip810)" d="M 0 0 M186.121 1452.98 Q188.177 1452.98 189.403 1454.24 Q190.63 1455.47 190.63 1457.02 Q190.63 1458.39 189.836 1459.11 Q189.043 1459.84 188.033 1459.84 Q187.6 1459.84 187.059 1459.66 Q186.482 1459.47 185.796 1459.08 Q185.111 1458.65 184.606 1457.74 Q184.101 1456.84 184.029 1455.62 Q183.776 1455.87 183.74 1455.94 Q183.307 1456.48 183.163 1457.49 Q183.091 1457.64 183.091 1458.14 Q183.091 1460.63 184.931 1463.15 Q186.734 1465.64 190.161 1468.71 Q194.165 1472.57 195.644 1475.06 Q197.086 1464.13 203.399 1464.13 Q204.445 1464.13 205.707 1464.42 Q208.088 1464.99 209.819 1464.99 Q213.282 1464.99 213.282 1462.65 Q213.282 1460.38 210.974 1458.93 Q208.665 1457.45 204.156 1456.23 Q203.327 1456.05 203.074 1455.87 Q202.822 1455.69 202.822 1455.18 Q202.822 1454.28 203.543 1454.28 Q207.763 1455.11 211.01 1456.95 Q214.941 1459.29 214.941 1462.79 Q214.941 1465.71 212.921 1467.66 Q210.865 1469.57 207.619 1469.57 Q206.825 1469.57 205.022 1469.29 Q204.3 1469.07 203.471 1469.07 Q201.776 1469.07 200.513 1470.01 Q199.215 1470.95 198.565 1472.46 Q197.916 1473.98 197.627 1475.24 Q197.303 1476.46 197.195 1477.65 Q212.452 1481.26 213.39 1481.77 Q214.04 1482.09 214.472 1482.81 Q214.941 1483.53 214.941 1484.29 Q214.941 1485.01 214.436 1485.73 Q213.967 1486.42 212.849 1486.42 Q212.272 1486.42 211.226 1486.13 L168.663 1475.42 L167.22 1475.2 Q166.787 1475.2 166.571 1475.38 Q166.318 1475.53 166.138 1476.39 Q165.957 1477.22 165.957 1478.88 Q165.957 1479.57 165.921 1479.89 Q165.885 1480.18 165.705 1480.43 Q165.489 1480.68 165.056 1480.68 Q164.442 1480.68 164.118 1480.43 Q163.757 1480.14 163.685 1479.93 Q163.613 1479.71 163.577 1479.28 Q163.541 1478.66 163.36 1476.61 Q163.144 1474.55 163 1472.78 Q162.855 1471.02 162.855 1470.26 Q162.855 1469.83 163.072 1469.61 Q163.252 1469.36 163.469 1469.32 L163.649 1469.29 L194.814 1476.97 Q193.551 1473.79 187.961 1468.78 Q181.468 1462.97 181.468 1458 Q181.468 1455.65 182.911 1454.32 Q184.317 1452.98 186.121 1452.98 Z" fill="#000000" fill-rule="evenodd" fill-opacity="1" /><path clip-path="url(#clip810)" d="M 0 0 M193.948 1418.48 Q197.88 1418.48 201.776 1420.21 Q205.635 1421.94 208.521 1424.72 Q211.37 1427.46 213.174 1431.07 Q214.941 1434.68 214.941 1438.28 Q214.941 1443.44 211.442 1446.8 Q207.908 1450.11 202.425 1450.11 Q197.303 1450.11 192.433 1447.26 Q187.528 1444.38 184.498 1439.76 Q181.468 1435.15 181.468 1430.31 Q181.468 1425.23 184.895 1421.87 Q188.321 1418.48 193.948 1418.48 M191.063 1423.89 Q187.564 1423.89 185.327 1425.59 Q183.091 1427.28 183.091 1430.38 Q183.091 1431.29 183.38 1432.33 Q183.632 1433.38 184.317 1434.75 Q185.003 1436.08 186.446 1437.6 Q187.852 1439.08 189.872 1440.38 Q192.541 1442.07 197.447 1443.37 Q202.317 1444.63 205.238 1444.63 Q209.278 1444.63 211.298 1442.76 Q213.282 1440.88 213.282 1438.21 Q213.282 1435.61 211.479 1432.87 Q209.639 1430.1 206.501 1428.18 Q203.254 1426.27 198.493 1425.08 Q193.696 1423.89 191.063 1423.89 Z" fill="#000000" fill-rule="evenodd" fill-opacity="1" /><path clip-path="url(#clip810)" d="M 0 0 M186.626 1383.56 Q187.564 1383.56 189.403 1383.82 Q191.243 1384.07 193.912 1384.68 Q196.581 1385.29 199.395 1386.2 Q202.208 1387.06 205.022 1388.43 Q207.799 1389.8 210 1391.43 Q212.2 1393.05 213.571 1395.32 Q214.941 1397.59 214.941 1400.16 Q214.941 1401.35 214.761 1402.5 Q214.581 1403.65 214.003 1405.1 Q213.426 1406.54 212.488 1407.59 Q211.515 1408.63 209.783 1409.35 Q208.052 1410.07 205.779 1410.07 Q203.435 1410.07 200.297 1409.21 Q197.122 1408.31 190.63 1405.85 Q187.275 1404.59 185.436 1404.59 Q184.606 1404.59 184.101 1404.77 Q183.56 1404.95 183.38 1405.31 Q183.163 1405.67 183.127 1405.89 Q183.091 1406.07 183.091 1406.43 Q183.091 1408.42 185.147 1410.44 Q187.203 1412.46 192.253 1413.9 Q193.155 1414.19 193.371 1414.37 Q193.588 1414.55 193.588 1415.09 Q193.551 1415.99 192.83 1415.99 Q192.614 1415.99 191.784 1415.74 Q190.918 1415.49 189.62 1415.02 Q188.285 1414.55 186.914 1413.72 Q185.508 1412.89 184.281 1411.88 Q183.055 1410.83 182.261 1409.35 Q181.468 1407.87 181.468 1406.21 Q181.468 1403.51 183.235 1401.85 Q184.967 1400.16 187.528 1400.16 Q188.934 1400.16 191.207 1401.06 Q195.319 1402.57 197.303 1403.26 Q199.287 1403.94 202.1 1404.66 Q204.914 1405.35 206.861 1405.35 Q209.819 1405.35 211.551 1403.98 Q213.282 1402.61 213.282 1399.87 Q213.282 1397.41 211.515 1395.21 Q209.711 1392.98 207.15 1391.5 Q204.553 1390.02 201.667 1388.9 Q198.746 1387.78 196.545 1387.28 Q194.309 1386.74 193.263 1386.74 Q189.62 1386.74 187.239 1389.23 Q186.554 1389.91 186.121 1390.16 Q185.688 1390.42 185.003 1390.42 Q183.74 1390.42 182.622 1389.3 Q181.468 1388.14 181.468 1386.81 Q181.468 1385.58 182.694 1384.57 Q183.921 1383.56 186.626 1383.56 Z" fill="#000000" fill-rule="evenodd" fill-opacity="1" /><path clip-path="url(#clip813)" d="
M1060.44 2899.41 L1060.44 2899.41 L1060.44 2899.41 L1060.44 2899.41 L1060.44 2251.4 L1060.44 2899.41  Z
  " fill="#4878d0" fill-rule="evenodd" fill-opacity="1"/>
<polyline clip-path="url(#clip813)" style="stroke:#000000; stroke-width:7.68; stroke-opacity:1; fill:none" points="
  1060.44,2899.41 1060.44,2899.41 1060.44,2251.4 1060.44,2899.41 
  "/>
<path clip-path="url(#clip813)" d="
M618.202 2251.4 L618.202 1473.79 L1060.44 1473.79 L1502.68 1473.79 L1502.68 2251.4 L618.202 2251.4 L618.202 2251.4  Z
  " fill="#4878d0" fill-rule="evenodd" fill-opacity="1"/>
<polyline clip-path="url(#clip813)" style="stroke:#000000; stroke-width:7.68; stroke-opacity:1; fill:none" points="
  618.202,2251.4 618.202,1473.79 1060.44,1473.79 1502.68,1473.79 1502.68,2251.4 618.202,2251.4 
  "/>
<path clip-path="url(#clip813)" d="
M618.202 1006.84 L618.202 1473.79 L1502.68 1473.79 L1502.68 1006.84 L618.202 1006.84 L618.202 1006.84  Z
  " fill="#4878d0" fill-rule="evenodd" fill-opacity="1"/>
<polyline clip-path="url(#clip813)" style="stroke:#000000; stroke-width:7.68; stroke-opacity:1; fill:none" points="
  618.202,1006.84 618.202,1473.79 1502.68,1473.79 1502.68,1006.84 618.202,1006.84 
  "/>
<path clip-path="url(#clip813)" d="
M1060.44 157.838 L1060.44 157.838 L1060.44 157.838 L1060.44 157.838 L1060.44 1006.84 L1060.44 157.838  Z
  " fill="#4878d0" fill-rule="evenodd" fill-opacity="1"/>
<polyline clip-path="url(#clip813)" style="stroke:#000000; stroke-width:7.68; stroke-opacity:1; fill:none" points="
  1060.44,157.838 1060.44,157.838 1060.44,1006.84 1060.44,157.838 
  "/>
<polyline clip-path="url(#clip813)" style="stroke:#4878d0; stroke-width:0; stroke-opacity:1; fill:none" points="
  1060.44,2899.41 1060.44,2899.41 1060.44,2251.4 
  "/>
<polyline clip-path="url(#clip813)" style="stroke:#4878d0; stroke-width:0; stroke-opacity:1; fill:none" points="
  618.202,2251.4 618.202,1473.79 1060.44,1473.79 1502.68,1473.79 1502.68,2251.4 618.202,2251.4 
  "/>
<polyline clip-path="url(#clip813)" style="stroke:#4878d0; stroke-width:0; stroke-opacity:1; fill:none" points="
  618.202,1006.84 618.202,1473.79 1502.68,1473.79 1502.68,1006.84 618.202,1006.84 
  "/>
<polyline clip-path="url(#clip813)" style="stroke:#4878d0; stroke-width:0; stroke-opacity:1; fill:none" points="
  1060.44,157.838 1060.44,157.838 1060.44,1006.84 
  "/>
<path clip-path="url(#clip813)" d="
M2608.27 2789.75 L2608.27 2789.75 L2608.27 2789.75 L2608.27 2789.75 L2608.27 1802.78 L2608.27 2789.75  Z
  " fill="#ee854a" fill-rule="evenodd" fill-opacity="1"/>
<polyline clip-path="url(#clip813)" style="stroke:#000000; stroke-width:7.68; stroke-opacity:1; fill:none" points="
  2608.27,2789.75 2608.27,2789.75 2608.27,1802.78 2608.27,2789.75 
  "/>
<path clip-path="url(#clip813)" d="
M2166.03 1802.78 L2166.03 1473.79 L2608.27 1473.79 L3050.51 1473.79 L3050.51 1802.78 L2166.03 1802.78 L2166.03 1802.78  Z
  " fill="#ee854a" fill-rule="evenodd" fill-opacity="1"/>
<polyline clip-path="url(#clip813)" style="stroke:#000000; stroke-width:7.68; stroke-opacity:1; fill:none" points="
  2166.03,1802.78 2166.03,1473.79 2608.27,1473.79 3050.51,1473.79 3050.51,1802.78 2166.03,1802.78 
  "/>
<path clip-path="url(#clip813)" d="
M2166.03 157.838 L2166.03 1473.79 L3050.51 1473.79 L3050.51 157.838 L2166.03 157.838 L2166.03 157.838  Z
  " fill="#ee854a" fill-rule="evenodd" fill-opacity="1"/>
<polyline clip-path="url(#clip813)" style="stroke:#000000; stroke-width:7.68; stroke-opacity:1; fill:none" points="
  2166.03,157.838 2166.03,1473.79 3050.51,1473.79 3050.51,157.838 2166.03,157.838 
  "/>
<path clip-path="url(#clip813)" d="
M2608.27 157.838 L2608.27 157.838 L2608.27 157.838 L2608.27 157.838 L2608.27 157.838 L2608.27 157.838  Z
  " fill="#ee854a" fill-rule="evenodd" fill-opacity="1"/>
<polyline clip-path="url(#clip813)" style="stroke:#000000; stroke-width:7.68; stroke-opacity:1; fill:none" points="
  2608.27,157.838 2608.27,157.838 
  "/>
<polyline clip-path="url(#clip813)" style="stroke:#ee854a; stroke-width:0; stroke-opacity:1; fill:none" points="
  2608.27,2789.75 2608.27,2789.75 2608.27,1802.78 
  "/>
<polyline clip-path="url(#clip813)" style="stroke:#ee854a; stroke-width:0; stroke-opacity:1; fill:none" points="
  2166.03,1802.78 2166.03,1473.79 2608.27,1473.79 3050.51,1473.79 3050.51,1802.78 2166.03,1802.78 
  "/>
<polyline clip-path="url(#clip813)" style="stroke:#ee854a; stroke-width:0; stroke-opacity:1; fill:none" points="
  2166.03,157.838 2166.03,1473.79 3050.51,1473.79 3050.51,157.838 2166.03,157.838 
  "/>
<polyline clip-path="url(#clip813)" style="stroke:#ee854a; stroke-width:0; stroke-opacity:1; fill:none" points="
  2608.27,157.838 2608.27,157.838 
  "/>
<circle clip-path="url(#clip813)" cx="1294.4" cy="2435.45" r="23" fill="#6acc64" fill-rule="evenodd" fill-opacity="1" stroke="#000000" stroke-opacity="1" stroke-width="10.24"/>
<circle clip-path="url(#clip813)" cx="1173.4" cy="917.042" r="23" fill="#6acc64" fill-rule="evenodd" fill-opacity="1" stroke="#000000" stroke-opacity="1" stroke-width="10.24"/>
<circle clip-path="url(#clip813)" cx="767.514" cy="1473.79" r="23" fill="#6acc64" fill-rule="evenodd" fill-opacity="1" stroke="#000000" stroke-opacity="1" stroke-width="10.24"/>
<circle clip-path="url(#clip813)" cx="1156.76" cy="363.456" r="23" fill="#6acc64" fill-rule="evenodd" fill-opacity="1" stroke="#000000" stroke-opacity="1" stroke-width="10.24"/>
<circle clip-path="url(#clip813)" cx="1111.73" cy="1512.5" r="23" fill="#6acc64" fill-rule="evenodd" fill-opacity="1" stroke="#000000" stroke-opacity="1" stroke-width="10.24"/>
<circle clip-path="url(#clip813)" cx="1312.65" cy="1952.32" r="23" fill="#6acc64" fill-rule="evenodd" fill-opacity="1" stroke="#000000" stroke-opacity="1" stroke-width="10.24"/>
<circle clip-path="url(#clip813)" cx="833.375" cy="486.826" r="23" fill="#6acc64" fill-rule="evenodd" fill-opacity="1" stroke="#000000" stroke-opacity="1" stroke-width="10.24"/>
<circle clip-path="url(#clip813)" cx="732.804" cy="2351.1" r="23" fill="#6acc64" fill-rule="evenodd" fill-opacity="1" stroke="#000000" stroke-opacity="1" stroke-width="10.24"/>
<circle clip-path="url(#clip813)" cx="716.266" cy="1006.84" r="23" fill="#6acc64" fill-rule="evenodd" fill-opacity="1" stroke="#000000" stroke-opacity="1" stroke-width="10.24"/>
<circle clip-path="url(#clip813)" cx="1019.63" cy="815.815" r="23" fill="#6acc64" fill-rule="evenodd" fill-opacity="1" stroke="#000000" stroke-opacity="1" stroke-width="10.24"/>
<circle clip-path="url(#clip813)" cx="1205.57" cy="1035.14" r="23" fill="#6acc64" fill-rule="evenodd" fill-opacity="1" stroke="#000000" stroke-opacity="1" stroke-width="10.24"/>
<circle clip-path="url(#clip813)" cx="1228.28" cy="2625.25" r="23" fill="#6acc64" fill-rule="evenodd" fill-opacity="1" stroke="#000000" stroke-opacity="1" stroke-width="10.24"/>
<circle clip-path="url(#clip813)" cx="1265.33" cy="2251.4" r="23" fill="#6acc64" fill-rule="evenodd" fill-opacity="1" stroke="#000000" stroke-opacity="1" stroke-width="10.24"/>
<circle clip-path="url(#clip813)" cx="808.323" cy="2272.77" r="23" fill="#6acc64" fill-rule="evenodd" fill-opacity="1" stroke="#000000" stroke-opacity="1" stroke-width="10.24"/>
<circle clip-path="url(#clip813)" cx="1181.04" cy="1185.93" r="23" fill="#6acc64" fill-rule="evenodd" fill-opacity="1" stroke="#000000" stroke-opacity="1" stroke-width="10.24"/>
<circle clip-path="url(#clip813)" cx="1175.56" cy="157.838" r="23" fill="#6acc64" fill-rule="evenodd" fill-opacity="1" stroke="#000000" stroke-opacity="1" stroke-width="10.24"/>
<circle clip-path="url(#clip813)" cx="1110.03" cy="1543.05" r="23" fill="#6acc64" fill-rule="evenodd" fill-opacity="1" stroke="#000000" stroke-opacity="1" stroke-width="10.24"/>
<circle clip-path="url(#clip813)" cx="725.302" cy="1874.3" r="23" fill="#6acc64" fill-rule="evenodd" fill-opacity="1" stroke="#000000" stroke-opacity="1" stroke-width="10.24"/>
<circle clip-path="url(#clip813)" cx="945.063" cy="917.042" r="23" fill="#6acc64" fill-rule="evenodd" fill-opacity="1" stroke="#000000" stroke-opacity="1" stroke-width="10.24"/>
<circle clip-path="url(#clip813)" cx="1233.91" cy="2351.1" r="23" fill="#6acc64" fill-rule="evenodd" fill-opacity="1" stroke="#000000" stroke-opacity="1" stroke-width="10.24"/>
<circle clip-path="url(#clip813)" cx="727.214" cy="1219.09" r="23" fill="#6acc64" fill-rule="evenodd" fill-opacity="1" stroke="#000000" stroke-opacity="1" stroke-width="10.24"/>
<circle clip-path="url(#clip813)" cx="1253.3" cy="1097.81" r="23" fill="#6acc64" fill-rule="evenodd" fill-opacity="1" stroke="#000000" stroke-opacity="1" stroke-width="10.24"/>
<circle clip-path="url(#clip813)" cx="652.638" cy="1391.55" r="23" fill="#6acc64" fill-rule="evenodd" fill-opacity="1" stroke="#000000" stroke-opacity="1" stroke-width="10.24"/>
<circle clip-path="url(#clip813)" cx="1096.1" cy="2899.41" r="23" fill="#6acc64" fill-rule="evenodd" fill-opacity="1" stroke="#000000" stroke-opacity="1" stroke-width="10.24"/>
<circle clip-path="url(#clip813)" cx="1222.56" cy="2189.83" r="23" fill="#6acc64" fill-rule="evenodd" fill-opacity="1" stroke="#000000" stroke-opacity="1" stroke-width="10.24"/>
<circle clip-path="url(#clip813)" cx="2350.62" cy="2272.77" r="23" fill="#d65f5f" fill-rule="evenodd" fill-opacity="1" stroke="#000000" stroke-opacity="1" stroke-width="10.24"/>
<circle clip-path="url(#clip813)" cx="2482.55" cy="1653.24" r="23" fill="#d65f5f" fill-rule="evenodd" fill-opacity="1" stroke="#000000" stroke-opacity="1" stroke-width="10.24"/>
<circle clip-path="url(#clip813)" cx="2943.29" cy="157.838" r="23" fill="#d65f5f" fill-rule="evenodd" fill-opacity="1" stroke="#000000" stroke-opacity="1" stroke-width="10.24"/>
<circle clip-path="url(#clip813)" cx="2351.57" cy="157.838" r="23" fill="#d65f5f" fill-rule="evenodd" fill-opacity="1" stroke="#000000" stroke-opacity="1" stroke-width="10.24"/>
<circle clip-path="url(#clip813)" cx="2240.57" cy="1620.01" r="23" fill="#d65f5f" fill-rule="evenodd" fill-opacity="1" stroke="#000000" stroke-opacity="1" stroke-width="10.24"/>
<circle clip-path="url(#clip813)" cx="2888.41" cy="815.815" r="23" fill="#d65f5f" fill-rule="evenodd" fill-opacity="1" stroke="#000000" stroke-opacity="1" stroke-width="10.24"/>
<circle clip-path="url(#clip813)" cx="2243.5" cy="1473.79" r="23" fill="#d65f5f" fill-rule="evenodd" fill-opacity="1" stroke="#000000" stroke-opacity="1" stroke-width="10.24"/>
<circle clip-path="url(#clip813)" cx="2788.74" cy="2625.25" r="23" fill="#d65f5f" fill-rule="evenodd" fill-opacity="1" stroke="#000000" stroke-opacity="1" stroke-width="10.24"/>
<circle clip-path="url(#clip813)" cx="2840.65" cy="157.838" r="23" fill="#d65f5f" fill-rule="evenodd" fill-opacity="1" stroke="#000000" stroke-opacity="1" stroke-width="10.24"/>
<circle clip-path="url(#clip813)" cx="2797.89" cy="2625.25" r="23" fill="#d65f5f" fill-rule="evenodd" fill-opacity="1" stroke="#000000" stroke-opacity="1" stroke-width="10.24"/>
<circle clip-path="url(#clip813)" cx="2398.97" cy="157.838" r="23" fill="#d65f5f" fill-rule="evenodd" fill-opacity="1" stroke="#000000" stroke-opacity="1" stroke-width="10.24"/>
<circle clip-path="url(#clip813)" cx="2862.56" cy="157.838" r="23" fill="#d65f5f" fill-rule="evenodd" fill-opacity="1" stroke="#000000" stroke-opacity="1" stroke-width="10.24"/>
<circle clip-path="url(#clip813)" cx="2365.84" cy="1620.01" r="23" fill="#d65f5f" fill-rule="evenodd" fill-opacity="1" stroke="#000000" stroke-opacity="1" stroke-width="10.24"/>
<circle clip-path="url(#clip813)" cx="2736.89" cy="2419.64" r="23" fill="#d65f5f" fill-rule="evenodd" fill-opacity="1" stroke="#000000" stroke-opacity="1" stroke-width="10.24"/>
<circle clip-path="url(#clip813)" cx="2347.5" cy="1653.24" r="23" fill="#d65f5f" fill-rule="evenodd" fill-opacity="1" stroke="#000000" stroke-opacity="1" stroke-width="10.24"/>
<circle clip-path="url(#clip813)" cx="2410.54" cy="157.838" r="23" fill="#d65f5f" fill-rule="evenodd" fill-opacity="1" stroke="#000000" stroke-opacity="1" stroke-width="10.24"/>
<circle clip-path="url(#clip813)" cx="2821.23" cy="980.309" r="23" fill="#d65f5f" fill-rule="evenodd" fill-opacity="1" stroke="#000000" stroke-opacity="1" stroke-width="10.24"/>
<circle clip-path="url(#clip813)" cx="2687.28" cy="2351.1" r="23" fill="#d65f5f" fill-rule="evenodd" fill-opacity="1" stroke="#000000" stroke-opacity="1" stroke-width="10.24"/>
<circle clip-path="url(#clip813)" cx="3018.04" cy="1473.79" r="23" fill="#d65f5f" fill-rule="evenodd" fill-opacity="1" stroke="#000000" stroke-opacity="1" stroke-width="10.24"/>
<circle clip-path="url(#clip813)" cx="2999.37" cy="1802.78" r="23" fill="#d65f5f" fill-rule="evenodd" fill-opacity="1" stroke="#000000" stroke-opacity="1" stroke-width="10.24"/>
<circle clip-path="url(#clip813)" cx="2394.51" cy="456.918" r="23" fill="#d65f5f" fill-rule="evenodd" fill-opacity="1" stroke="#000000" stroke-opacity="1" stroke-width="10.24"/>
<circle clip-path="url(#clip813)" cx="2683.55" cy="2789.75" r="23" fill="#d65f5f" fill-rule="evenodd" fill-opacity="1" stroke="#000000" stroke-opacity="1" stroke-width="10.24"/>
<circle clip-path="url(#clip813)" cx="2357.16" cy="157.838" r="23" fill="#d65f5f" fill-rule="evenodd" fill-opacity="1" stroke="#000000" stroke-opacity="1" stroke-width="10.24"/>
<circle clip-path="url(#clip813)" cx="2287.31" cy="157.838" r="23" fill="#d65f5f" fill-rule="evenodd" fill-opacity="1" stroke="#000000" stroke-opacity="1" stroke-width="10.24"/>
<circle clip-path="url(#clip813)" cx="2981.19" cy="1620.01" r="23" fill="#d65f5f" fill-rule="evenodd" fill-opacity="1" stroke="#000000" stroke-opacity="1" stroke-width="10.24"/>
<path clip-path="url(#clip810)" d="
M3746.17 2981.66 L6324.41 2981.66 L6324.41 75.5906 L3746.17 75.5906  Z
  " fill="#ffffff" fill-rule="evenodd" fill-opacity="1"/>
<polyline clip-path="url(#clip812)" style="stroke:#222255; stroke-width:5.12; stroke-opacity:0.25; fill:none" points="
  4261.37,2981.66 4261.37,75.5906 
  "/>
<polyline clip-path="url(#clip812)" style="stroke:#222255; stroke-width:5.12; stroke-opacity:0.25; fill:none" points="
  5809.2,2981.66 5809.2,75.5906 
  "/>
<polyline clip-path="url(#clip812)" style="stroke:#222255; stroke-width:3.2; stroke-opacity:0.05; fill:none" points="
  3951.81,2981.66 3951.81,75.5906 
  "/>
<polyline clip-path="url(#clip812)" style="stroke:#222255; stroke-width:3.2; stroke-opacity:0.05; fill:none" points="
  4570.94,2981.66 4570.94,75.5906 
  "/>
<polyline clip-path="url(#clip812)" style="stroke:#222255; stroke-width:3.2; stroke-opacity:0.05; fill:none" points="
  4880.5,2981.66 4880.5,75.5906 
  "/>
<polyline clip-path="url(#clip812)" style="stroke:#222255; stroke-width:3.2; stroke-opacity:0.05; fill:none" points="
  5190.07,2981.66 5190.07,75.5906 
  "/>
<polyline clip-path="url(#clip812)" style="stroke:#222255; stroke-width:3.2; stroke-opacity:0.05; fill:none" points="
  5499.64,2981.66 5499.64,75.5906 
  "/>
<polyline clip-path="url(#clip812)" style="stroke:#222255; stroke-width:3.2; stroke-opacity:0.05; fill:none" points="
  6118.77,2981.66 6118.77,75.5906 
  "/>
<polyline clip-path="url(#clip810)" style="stroke:#222255; stroke-width:6.4; stroke-opacity:0; fill:none" points="
  4261.37,2981.66 4261.37,2946.78 
  "/>
<polyline clip-path="url(#clip810)" style="stroke:#222255; stroke-width:6.4; stroke-opacity:0; fill:none" points="
  5809.2,2981.66 5809.2,2946.78 
  "/>
<polyline clip-path="url(#clip810)" style="stroke:#222255; stroke-width:6.4; stroke-opacity:0; fill:none" points="
  3951.81,2981.66 3951.81,2964.22 
  "/>
<polyline clip-path="url(#clip810)" style="stroke:#222255; stroke-width:6.4; stroke-opacity:0; fill:none" points="
  4570.94,2981.66 4570.94,2964.22 
  "/>
<polyline clip-path="url(#clip810)" style="stroke:#222255; stroke-width:6.4; stroke-opacity:0; fill:none" points="
  4880.5,2981.66 4880.5,2964.22 
  "/>
<polyline clip-path="url(#clip810)" style="stroke:#222255; stroke-width:6.4; stroke-opacity:0; fill:none" points="
  5190.07,2981.66 5190.07,2964.22 
  "/>
<polyline clip-path="url(#clip810)" style="stroke:#222255; stroke-width:6.4; stroke-opacity:0; fill:none" points="
  5499.64,2981.66 5499.64,2964.22 
  "/>
<polyline clip-path="url(#clip810)" style="stroke:#222255; stroke-width:6.4; stroke-opacity:0; fill:none" points="
  6118.77,2981.66 6118.77,2964.22 
  "/>
<path clip-path="url(#clip810)" d="M 0 0 M4230.37 3050.06 L4230.37 3070.84 L4239.78 3070.84 Q4245 3070.84 4247.85 3068.14 Q4250.71 3065.44 4250.71 3060.44 Q4250.71 3055.47 4247.85 3052.77 Q4245 3050.06 4239.78 3050.06 L4230.37 3050.06 M4222.89 3043.92 L4239.78 3043.92 Q4249.08 3043.92 4253.82 3048.14 Q4258.59 3052.32 4258.59 3060.44 Q4258.59 3068.62 4253.82 3072.81 Q4249.08 3076.99 4239.78 3076.99 L4230.37 3076.99 L4230.37 3099.21 L4222.89 3099.21 L4222.89 3043.92 Z" fill="#000000" fill-rule="evenodd" fill-opacity="1" /><path clip-path="url(#clip810)" d="M 0 0 M4268 3092.92 L4280.22 3092.92 L4280.22 3050.73 L4266.93 3053.4 L4266.93 3046.58 L4280.15 3043.92 L4287.63 3043.92 L4287.63 3092.92 L4299.85 3092.92 L4299.85 3099.21 L4268 3099.21 L4268 3092.92 Z" fill="#000000" fill-rule="evenodd" fill-opacity="1" /><path clip-path="url(#clip810)" d="M 0 0 M5778.5 3050.06 L5778.5 3070.84 L5787.91 3070.84 Q5793.13 3070.84 5795.98 3068.14 Q5798.83 3065.44 5798.83 3060.44 Q5798.83 3055.47 5795.98 3052.77 Q5793.13 3050.06 5787.91 3050.06 L5778.5 3050.06 M5771.02 3043.92 L5787.91 3043.92 Q5797.2 3043.92 5801.94 3048.14 Q5806.72 3052.32 5806.72 3060.44 Q5806.72 3068.62 5801.94 3072.81 Q5797.2 3076.99 5787.91 3076.99 L5778.5 3076.99 L5778.5 3099.21 L5771.02 3099.21 L5771.02 3043.92 Z" fill="#000000" fill-rule="evenodd" fill-opacity="1" /><path clip-path="url(#clip810)" d="M 0 0 M5821.28 3092.92 L5847.39 3092.92 L5847.39 3099.21 L5812.28 3099.21 L5812.28 3092.92 Q5816.54 3088.51 5823.87 3081.1 Q5831.24 3073.66 5833.13 3071.51 Q5836.72 3067.47 5838.13 3064.69 Q5839.57 3061.88 5839.57 3059.18 Q5839.57 3054.77 5836.46 3051.99 Q5833.39 3049.21 5828.43 3049.21 Q5824.91 3049.21 5820.98 3050.44 Q5817.09 3051.66 5812.65 3054.14 L5812.65 3046.58 Q5817.17 3044.77 5821.09 3043.84 Q5825.02 3042.92 5828.28 3042.92 Q5836.87 3042.92 5841.98 3047.21 Q5847.09 3051.51 5847.09 3058.69 Q5847.09 3062.1 5845.8 3065.18 Q5844.54 3068.21 5841.17 3072.36 Q5840.24 3073.43 5835.28 3078.58 Q5830.31 3083.69 5821.28 3092.92 Z" fill="#000000" fill-rule="evenodd" fill-opacity="1" /><polyline clip-path="url(#clip812)" style="stroke:#222255; stroke-width:5.12; stroke-opacity:0.25; fill:none" points="
  3746.17,2899.41 6324.41,2899.41 
  "/>
<polyline clip-path="url(#clip812)" style="stroke:#222255; stroke-width:5.12; stroke-opacity:0.25; fill:none" points="
  3746.17,2137.86 6324.41,2137.86 
  "/>
<polyline clip-path="url(#clip812)" style="stroke:#222255; stroke-width:5.12; stroke-opacity:0.25; fill:none" points="
  3746.17,1376.31 6324.41,1376.31 
  "/>
<polyline clip-path="url(#clip812)" style="stroke:#222255; stroke-width:5.12; stroke-opacity:0.25; fill:none" points="
  3746.17,614.766 6324.41,614.766 
  "/>
<polyline clip-path="url(#clip812)" style="stroke:#222255; stroke-width:3.2; stroke-opacity:0.05; fill:none" points="
  3746.17,2747.1 6324.41,2747.1 
  "/>
<polyline clip-path="url(#clip812)" style="stroke:#222255; stroke-width:3.2; stroke-opacity:0.05; fill:none" points="
  3746.17,2594.79 6324.41,2594.79 
  "/>
<polyline clip-path="url(#clip812)" style="stroke:#222255; stroke-width:3.2; stroke-opacity:0.05; fill:none" points="
  3746.17,2442.48 6324.41,2442.48 
  "/>
<polyline clip-path="url(#clip812)" style="stroke:#222255; stroke-width:3.2; stroke-opacity:0.05; fill:none" points="
  3746.17,2290.17 6324.41,2290.17 
  "/>
<polyline clip-path="url(#clip812)" style="stroke:#222255; stroke-width:3.2; stroke-opacity:0.05; fill:none" points="
  3746.17,1985.55 6324.41,1985.55 
  "/>
<polyline clip-path="url(#clip812)" style="stroke:#222255; stroke-width:3.2; stroke-opacity:0.05; fill:none" points="
  3746.17,1833.24 6324.41,1833.24 
  "/>
<polyline clip-path="url(#clip812)" style="stroke:#222255; stroke-width:3.2; stroke-opacity:0.05; fill:none" points="
  3746.17,1680.93 6324.41,1680.93 
  "/>
<polyline clip-path="url(#clip812)" style="stroke:#222255; stroke-width:3.2; stroke-opacity:0.05; fill:none" points="
  3746.17,1528.62 6324.41,1528.62 
  "/>
<polyline clip-path="url(#clip812)" style="stroke:#222255; stroke-width:3.2; stroke-opacity:0.05; fill:none" points="
  3746.17,1224 6324.41,1224 
  "/>
<polyline clip-path="url(#clip812)" style="stroke:#222255; stroke-width:3.2; stroke-opacity:0.05; fill:none" points="
  3746.17,1071.7 6324.41,1071.7 
  "/>
<polyline clip-path="url(#clip812)" style="stroke:#222255; stroke-width:3.2; stroke-opacity:0.05; fill:none" points="
  3746.17,919.386 6324.41,919.386 
  "/>
<polyline clip-path="url(#clip812)" style="stroke:#222255; stroke-width:3.2; stroke-opacity:0.05; fill:none" points="
  3746.17,767.076 6324.41,767.076 
  "/>
<polyline clip-path="url(#clip812)" style="stroke:#222255; stroke-width:3.2; stroke-opacity:0.05; fill:none" points="
  3746.17,462.457 6324.41,462.457 
  "/>
<polyline clip-path="url(#clip812)" style="stroke:#222255; stroke-width:3.2; stroke-opacity:0.05; fill:none" points="
  3746.17,310.147 6324.41,310.147 
  "/>
<polyline clip-path="url(#clip812)" style="stroke:#222255; stroke-width:3.2; stroke-opacity:0.05; fill:none" points="
  3746.17,157.838 6324.41,157.838 
  "/>
<polyline clip-path="url(#clip810)" style="stroke:#222255; stroke-width:6.4; stroke-opacity:0; fill:none" points="
  3746.17,2899.41 3777.1,2899.41 
  "/>
<polyline clip-path="url(#clip810)" style="stroke:#222255; stroke-width:6.4; stroke-opacity:0; fill:none" points="
  3746.17,2137.86 3777.1,2137.86 
  "/>
<polyline clip-path="url(#clip810)" style="stroke:#222255; stroke-width:6.4; stroke-opacity:0; fill:none" points="
  3746.17,1376.31 3777.1,1376.31 
  "/>
<polyline clip-path="url(#clip810)" style="stroke:#222255; stroke-width:6.4; stroke-opacity:0; fill:none" points="
  3746.17,614.766 3777.1,614.766 
  "/>
<polyline clip-path="url(#clip810)" style="stroke:#222255; stroke-width:6.4; stroke-opacity:0; fill:none" points="
  3746.17,2747.1 3761.64,2747.1 
  "/>
<polyline clip-path="url(#clip810)" style="stroke:#222255; stroke-width:6.4; stroke-opacity:0; fill:none" points="
  3746.17,2594.79 3761.64,2594.79 
  "/>
<polyline clip-path="url(#clip810)" style="stroke:#222255; stroke-width:6.4; stroke-opacity:0; fill:none" points="
  3746.17,2442.48 3761.64,2442.48 
  "/>
<polyline clip-path="url(#clip810)" style="stroke:#222255; stroke-width:6.4; stroke-opacity:0; fill:none" points="
  3746.17,2290.17 3761.64,2290.17 
  "/>
<polyline clip-path="url(#clip810)" style="stroke:#222255; stroke-width:6.4; stroke-opacity:0; fill:none" points="
  3746.17,1985.55 3761.64,1985.55 
  "/>
<polyline clip-path="url(#clip810)" style="stroke:#222255; stroke-width:6.4; stroke-opacity:0; fill:none" points="
  3746.17,1833.24 3761.64,1833.24 
  "/>
<polyline clip-path="url(#clip810)" style="stroke:#222255; stroke-width:6.4; stroke-opacity:0; fill:none" points="
  3746.17,1680.93 3761.64,1680.93 
  "/>
<polyline clip-path="url(#clip810)" style="stroke:#222255; stroke-width:6.4; stroke-opacity:0; fill:none" points="
  3746.17,1528.62 3761.64,1528.62 
  "/>
<polyline clip-path="url(#clip810)" style="stroke:#222255; stroke-width:6.4; stroke-opacity:0; fill:none" points="
  3746.17,1224 3761.64,1224 
  "/>
<polyline clip-path="url(#clip810)" style="stroke:#222255; stroke-width:6.4; stroke-opacity:0; fill:none" points="
  3746.17,1071.7 3761.64,1071.7 
  "/>
<polyline clip-path="url(#clip810)" style="stroke:#222255; stroke-width:6.4; stroke-opacity:0; fill:none" points="
  3746.17,919.386 3761.64,919.386 
  "/>
<polyline clip-path="url(#clip810)" style="stroke:#222255; stroke-width:6.4; stroke-opacity:0; fill:none" points="
  3746.17,767.076 3761.64,767.076 
  "/>
<polyline clip-path="url(#clip810)" style="stroke:#222255; stroke-width:6.4; stroke-opacity:0; fill:none" points="
  3746.17,462.457 3761.64,462.457 
  "/>
<polyline clip-path="url(#clip810)" style="stroke:#222255; stroke-width:6.4; stroke-opacity:0; fill:none" points="
  3746.17,310.147 3761.64,310.147 
  "/>
<polyline clip-path="url(#clip810)" style="stroke:#222255; stroke-width:6.4; stroke-opacity:0; fill:none" points="
  3746.17,157.838 3761.64,157.838 
  "/>
<path clip-path="url(#clip810)" d="M 0 0 M3502.28 2900.13 L3549.76 2900.13 L3549.76 2906.43 L3502.28 2906.43 L3502.28 2900.13 Z" fill="#000000" fill-rule="evenodd" fill-opacity="1" /><path clip-path="url(#clip810)" d="M 0 0 M3559.17 2920.76 L3571.39 2920.76 L3571.39 2878.58 L3558.09 2881.24 L3558.09 2874.43 L3571.31 2871.76 L3578.8 2871.76 L3578.8 2920.76 L3591.02 2920.76 L3591.02 2927.06 L3559.17 2927.06 L3559.17 2920.76 Z" fill="#000000" fill-rule="evenodd" fill-opacity="1" /><path clip-path="url(#clip810)" d="M 0 0 M3599.13 2917.65 L3606.94 2917.65 L3606.94 2927.06 L3599.13 2927.06 L3599.13 2917.65 Z" fill="#000000" fill-rule="evenodd" fill-opacity="1" /><path clip-path="url(#clip810)" d="M 0 0 M3631.05 2876.69 Q3625.28 2876.69 3622.35 2882.39 Q3619.46 2888.06 3619.46 2899.47 Q3619.46 2910.84 3622.35 2916.54 Q3625.28 2922.21 3631.05 2922.21 Q3636.87 2922.21 3639.76 2916.54 Q3642.68 2910.84 3642.68 2899.47 Q3642.68 2888.06 3639.76 2882.39 Q3636.87 2876.69 3631.05 2876.69 M3631.05 2870.76 Q3640.35 2870.76 3645.24 2878.13 Q3650.17 2885.47 3650.17 2899.47 Q3650.17 2913.43 3645.24 2920.8 Q3640.35 2928.13 3631.05 2928.13 Q3621.76 2928.13 3616.83 2920.8 Q3611.94 2913.43 3611.94 2899.47 Q3611.94 2885.47 3616.83 2878.13 Q3621.76 2870.76 3631.05 2870.76 Z" fill="#000000" fill-rule="evenodd" fill-opacity="1" /><path clip-path="url(#clip810)" d="M 0 0 M3501.91 2138.58 L3549.39 2138.58 L3549.39 2144.88 L3501.91 2144.88 L3501.91 2138.58 Z" fill="#000000" fill-rule="evenodd" fill-opacity="1" /><path clip-path="url(#clip810)" d="M 0 0 M3573.5 2115.14 Q3567.72 2115.14 3564.8 2120.84 Q3561.91 2126.51 3561.91 2137.92 Q3561.91 2149.29 3564.8 2154.99 Q3567.72 2160.66 3573.5 2160.66 Q3579.31 2160.66 3582.2 2154.99 Q3585.13 2149.29 3585.13 2137.92 Q3585.13 2126.51 3582.2 2120.84 Q3579.31 2115.14 3573.5 2115.14 M3573.5 2109.21 Q3582.8 2109.21 3587.68 2116.58 Q3592.61 2123.92 3592.61 2137.92 Q3592.61 2151.88 3587.68 2159.25 Q3582.8 2166.58 3573.5 2166.58 Q3564.2 2166.58 3559.28 2159.25 Q3554.39 2151.88 3554.39 2137.92 Q3554.39 2123.92 3559.28 2116.58 Q3564.2 2109.21 3573.5 2109.21 Z" fill="#000000" fill-rule="evenodd" fill-opacity="1" /><path clip-path="url(#clip810)" d="M 0 0 M3600.72 2156.1 L3608.54 2156.1 L3608.54 2165.51 L3600.72 2165.51 L3600.72 2156.1 Z" fill="#000000" fill-rule="evenodd" fill-opacity="1" /><path clip-path="url(#clip810)" d="M 0 0 M3616.72 2110.21 L3646.09 2110.21 L3646.09 2116.51 L3623.57 2116.51 L3623.57 2130.07 Q3625.2 2129.51 3626.83 2129.25 Q3628.46 2128.95 3630.09 2128.95 Q3639.35 2128.95 3644.76 2134.03 Q3650.17 2139.1 3650.17 2147.77 Q3650.17 2156.7 3644.61 2161.66 Q3639.05 2166.58 3628.94 2166.58 Q3625.46 2166.58 3621.83 2165.99 Q3618.24 2165.4 3614.39 2164.21 L3614.39 2156.7 Q3617.72 2158.51 3621.28 2159.4 Q3624.83 2160.29 3628.8 2160.29 Q3635.2 2160.29 3638.94 2156.92 Q3642.68 2153.55 3642.68 2147.77 Q3642.68 2141.99 3638.94 2138.62 Q3635.2 2135.25 3628.8 2135.25 Q3625.8 2135.25 3622.8 2135.92 Q3619.83 2136.58 3616.72 2137.99 L3616.72 2110.21 Z" fill="#000000" fill-rule="evenodd" fill-opacity="1" /><path clip-path="url(#clip810)" d="M 0 0 M3571.91 1353.59 Q3566.13 1353.59 3563.2 1359.3 Q3560.31 1364.96 3560.31 1376.37 Q3560.31 1387.74 3563.2 1393.44 Q3566.13 1399.11 3571.91 1399.11 Q3577.72 1399.11 3580.61 1393.44 Q3583.54 1387.74 3583.54 1376.37 Q3583.54 1364.96 3580.61 1359.3 Q3577.72 1353.59 3571.91 1353.59 M3571.91 1347.67 Q3581.2 1347.67 3586.09 1355.04 Q3591.02 1362.37 3591.02 1376.37 Q3591.02 1390.33 3586.09 1397.7 Q3581.2 1405.04 3571.91 1405.04 Q3562.61 1405.04 3557.68 1397.7 Q3552.8 1390.33 3552.8 1376.37 Q3552.8 1362.37 3557.68 1355.04 Q3562.61 1347.67 3571.91 1347.67 Z" fill="#000000" fill-rule="evenodd" fill-opacity="1" /><path clip-path="url(#clip810)" d="M 0 0 M3599.13 1394.56 L3606.94 1394.56 L3606.94 1403.96 L3599.13 1403.96 L3599.13 1394.56 Z" fill="#000000" fill-rule="evenodd" fill-opacity="1" /><path clip-path="url(#clip810)" d="M 0 0 M3631.05 1353.59 Q3625.28 1353.59 3622.35 1359.3 Q3619.46 1364.96 3619.46 1376.37 Q3619.46 1387.74 3622.35 1393.44 Q3625.28 1399.11 3631.05 1399.11 Q3636.87 1399.11 3639.76 1393.44 Q3642.68 1387.74 3642.68 1376.37 Q3642.68 1364.96 3639.76 1359.3 Q3636.87 1353.59 3631.05 1353.59 M3631.05 1347.67 Q3640.35 1347.67 3645.24 1355.04 Q3650.17 1362.37 3650.17 1376.37 Q3650.17 1390.33 3645.24 1397.7 Q3640.35 1405.04 3631.05 1405.04 Q3621.76 1405.04 3616.83 1397.7 Q3611.94 1390.33 3611.94 1376.37 Q3611.94 1362.37 3616.83 1355.04 Q3621.76 1347.67 3631.05 1347.67 Z" fill="#000000" fill-rule="evenodd" fill-opacity="1" /><path clip-path="url(#clip810)" d="M 0 0 M3573.5 592.044 Q3567.72 592.044 3564.8 597.748 Q3561.91 603.415 3561.91 614.822 Q3561.91 626.192 3564.8 631.896 Q3567.72 637.563 3573.5 637.563 Q3579.31 637.563 3582.2 631.896 Q3585.13 626.192 3585.13 614.822 Q3585.13 603.415 3582.2 597.748 Q3579.31 592.044 3573.5 592.044 M3573.5 586.118 Q3582.8 586.118 3587.68 593.489 Q3592.61 600.822 3592.61 614.822 Q3592.61 628.785 3587.68 636.155 Q3582.8 643.489 3573.5 643.489 Q3564.2 643.489 3559.28 636.155 Q3554.39 628.785 3554.39 614.822 Q3554.39 600.822 3559.28 593.489 Q3564.2 586.118 3573.5 586.118 Z" fill="#000000" fill-rule="evenodd" fill-opacity="1" /><path clip-path="url(#clip810)" d="M 0 0 M3600.72 633.007 L3608.54 633.007 L3608.54 642.414 L3600.72 642.414 L3600.72 633.007 Z" fill="#000000" fill-rule="evenodd" fill-opacity="1" /><path clip-path="url(#clip810)" d="M 0 0 M3616.72 587.118 L3646.09 587.118 L3646.09 593.415 L3623.57 593.415 L3623.57 606.97 Q3625.2 606.415 3626.83 606.155 Q3628.46 605.859 3630.09 605.859 Q3639.35 605.859 3644.76 610.933 Q3650.17 616.007 3650.17 624.674 Q3650.17 633.6 3644.61 638.563 Q3639.05 643.489 3628.94 643.489 Q3625.46 643.489 3621.83 642.896 Q3618.24 642.303 3614.39 641.118 L3614.39 633.6 Q3617.72 635.415 3621.28 636.303 Q3624.83 637.192 3628.8 637.192 Q3635.2 637.192 3638.94 633.822 Q3642.68 630.452 3642.68 624.674 Q3642.68 618.896 3638.94 615.526 Q3635.2 612.155 3628.8 612.155 Q3625.8 612.155 3622.8 612.822 Q3619.83 613.489 3616.72 614.896 L3616.72 587.118 Z" fill="#000000" fill-rule="evenodd" fill-opacity="1" /><path clip-path="url(#clip810)" d="M 0 0 M3384.97 1699.05 L3381.72 1699.05 L3381.72 1697.5 Q3381.72 1691.88 3380.95 1690.13 Q3380.12 1688.33 3377.14 1688.17 L3320.81 1688.17 Q3318.08 1688.28 3317.26 1690.03 Q3316.38 1691.78 3316.38 1697.5 L3316.38 1699.05 L3313.19 1699.05 L3313.39 1682.92 L3313.19 1677.87 L3313.19 1648.19 L3313.39 1643.14 L3313.19 1627.01 L3316.38 1627.01 L3316.38 1628.35 Q3316.38 1634.38 3317.26 1636.08 Q3318.08 1637.78 3320.92 1637.88 L3377.24 1637.88 Q3379.97 1637.78 3380.85 1636.08 Q3381.72 1634.38 3381.72 1628.76 L3381.72 1627.01 L3384.97 1627.01 Q3384.66 1635.05 3384.66 1643.24 Q3384.66 1644.84 3384.97 1658.13 L3381.72 1658.13 L3381.72 1656.43 Q3381.72 1650.61 3380.9 1649.01 Q3380.02 1647.36 3377.03 1647.26 L3316.38 1647.26 L3316.38 1678.8 L3377.03 1678.8 Q3379.97 1678.69 3380.85 1676.99 Q3381.72 1675.24 3381.72 1669.11 L3381.72 1667.92 L3384.97 1667.92 Q3384.66 1675.96 3384.66 1684.21 Q3384.66 1685.75 3384.97 1699.05 Z" fill="#000000" fill-rule="evenodd" fill-opacity="1" /><path clip-path="url(#clip810)" d="M 0 0 M3365.65 1542.35 Q3366.69 1542.35 3366.91 1542.82 Q3367.12 1543.25 3367.12 1544.69 Q3367.12 1546.39 3367.27 1547.43 Q3367.38 1548.48 3367.56 1549.13 Q3367.7 1549.78 3368.21 1550.18 Q3368.71 1550.54 3369.14 1550.68 Q3369.54 1550.83 3370.51 1551.08 L3409.87 1560.89 Q3411.2 1561.25 3411.67 1561.25 Q3412.14 1561.25 3412.43 1560.96 Q3412.72 1560.64 3412.86 1559.84 Q3412.97 1559.05 3413.01 1558.44 Q3413.01 1557.79 3413.01 1556.45 Q3413.01 1554.79 3413.29 1554.54 Q3413.47 1554.4 3413.8 1554.4 Q3414.48 1554.4 3414.85 1554.68 Q3415.17 1554.97 3415.24 1555.23 Q3415.28 1555.44 3415.28 1555.8 Q3415.28 1557.32 3415.17 1560.42 Q3415.06 1563.52 3415.06 1565.04 L3415.28 1574.2 Q3415.28 1575.28 3414.38 1575.28 Q3413.69 1575.28 3413.4 1574.99 Q3413.08 1574.7 3413.04 1574.38 Q3413.01 1574.05 3413.01 1573.23 Q3413.01 1570.27 3412.68 1569 Q3412.36 1567.71 3411.78 1567.35 Q3411.17 1566.95 3409.51 1566.52 L3367.2 1555.95 L3367.2 1556.02 L3413.94 1585.85 L3414.27 1586.07 Q3414.56 1586.28 3414.67 1586.35 Q3414.74 1586.43 3414.95 1586.64 Q3415.13 1586.82 3415.21 1587.04 Q3415.28 1587.22 3415.28 1587.47 Q3415.28 1587.91 3414.99 1588.16 Q3414.7 1588.37 3414.48 1588.45 Q3414.23 1588.48 3413.58 1588.59 L3367.77 1594.94 L3367.77 1595.01 L3408.03 1605.08 Q3409.15 1605.36 3409.72 1605.36 Q3411.2 1605.36 3412.1 1604.32 Q3412.97 1603.24 3413.01 1600.35 Q3413.01 1599.02 3413.8 1599.02 Q3415.28 1599.02 3415.28 1600.35 Q3415.28 1601.58 3415.17 1604.14 Q3415.06 1606.7 3415.06 1607.96 Q3415.06 1609.19 3415.17 1611.68 Q3415.28 1614.13 3415.28 1615.32 Q3415.28 1616.37 3414.38 1616.37 Q3413.01 1616.37 3413.01 1615.03 Q3412.93 1612.87 3412.5 1611.39 Q3412.07 1609.91 3411.24 1609.08 Q3410.41 1608.21 3409.58 1607.82 Q3408.71 1607.38 3407.45 1607.06 L3369.83 1597.68 Q3368.64 1597.39 3368.46 1597.39 Q3367.85 1597.39 3367.63 1597.75 Q3367.38 1598.08 3367.27 1599.02 Q3367.12 1600.82 3367.12 1602.19 Q3367.12 1603.09 3367.09 1603.45 Q3367.05 1603.78 3366.87 1604.07 Q3366.66 1604.32 3366.22 1604.32 Q3365.54 1604.32 3365.25 1604.03 Q3364.92 1603.7 3364.89 1603.34 Q3364.82 1602.98 3364.82 1602.12 L3364.82 1591.98 Q3364.82 1590.5 3365.07 1590.18 Q3365.28 1589.85 3366.51 1589.71 L3408.32 1583.94 L3366.22 1556.96 Q3365.18 1556.27 3365 1555.91 Q3364.82 1555.55 3364.82 1554.11 L3364.82 1544.33 Q3364.82 1543.54 3364.85 1543.21 Q3364.89 1542.89 3365.07 1542.64 Q3365.25 1542.35 3365.65 1542.35 Z" fill="#000000" fill-rule="evenodd" fill-opacity="1" /><path clip-path="url(#clip810)" d="M 0 0 M3404.71 1511.48 Q3409.36 1512.46 3412.03 1513.72 Q3416.11 1515.74 3416.11 1519.17 Q3416.11 1521.76 3414.52 1523.6 Q3412.93 1525.44 3410.55 1525.87 Q3416.11 1530.6 3416.11 1535.51 Q3416.11 1539.83 3412.83 1542.58 Q3409.51 1545.32 3404.28 1545.32 Q3399.01 1545.32 3393.96 1542.72 Q3388.91 1540.09 3385.77 1535.94 Q3382.63 1531.79 3382.63 1527.53 Q3382.63 1523.03 3387.36 1520.72 Q3386.06 1520.54 3385.09 1519.71 Q3384.11 1518.88 3384.11 1517.61 Q3384.11 1516.64 3384.65 1516.06 Q3385.16 1515.49 3386.1 1515.49 Q3386.57 1515.49 3388.62 1515.99 L3398.94 1518.66 L3405.61 1520.28 Q3408.06 1520.9 3408.97 1521.08 Q3409.87 1521.22 3411.06 1521.22 Q3414.45 1521.22 3414.45 1519.02 Q3414.45 1517.94 3413.76 1517.07 Q3413.08 1516.21 3411.64 1515.52 Q3410.19 1514.84 3408.86 1514.4 Q3407.49 1513.97 3405.32 1513.39 Q3404.46 1513.21 3404.24 1513.07 Q3403.99 1512.89 3403.99 1512.38 Q3403.99 1511.48 3404.71 1511.48 M3390.75 1521.62 Q3390.43 1521.62 3389.52 1521.87 Q3388.62 1522.12 3387.36 1522.7 Q3386.1 1523.28 3385.2 1524.54 Q3384.26 1525.77 3384.26 1527.43 Q3384.26 1529.66 3386.17 1532.01 Q3388.08 1534.32 3391.33 1536.01 Q3393.92 1537.31 3399.37 1538.72 Q3404.82 1540.09 3407.52 1540.09 Q3409.18 1540.09 3410.66 1539.73 Q3412.1 1539.33 3413.29 1538.21 Q3414.45 1537.09 3414.45 1535.36 Q3414.45 1531.14 3409.22 1526.99 Q3408.32 1526.2 3407.96 1526.02 Q3407.56 1525.8 3406.48 1525.51 L3392.01 1521.83 Q3390.93 1521.62 3390.75 1521.62 Z" fill="#000000" fill-rule="evenodd" fill-opacity="1" /><path clip-path="url(#clip810)" d="M 0 0 M3387.43 1476.49 Q3389.34 1476.49 3390.57 1477.75 Q3391.8 1478.98 3391.8 1480.57 Q3391.8 1481.94 3391 1482.66 Q3390.21 1483.38 3389.2 1483.38 Q3387.76 1483.38 3386.57 1482.26 Q3385.38 1481.14 3385.12 1479.52 Q3384.26 1480.71 3384.26 1482.62 Q3384.26 1485.76 3386.67 1488.54 Q3387.79 1489.76 3389.85 1491.1 Q3391.87 1492.43 3392.73 1492.69 L3402.37 1495.03 Q3403.45 1495.25 3408.64 1496.58 Q3413.8 1497.88 3414.02 1497.99 Q3415.03 1498.35 3415.57 1499.14 Q3416.11 1499.94 3416.11 1500.73 Q3416.11 1501.63 3415.57 1502.24 Q3415.03 1502.86 3414.09 1502.86 Q3413.94 1502.86 3413.4 1502.75 Q3412.86 1502.64 3412.1 1502.46 Q3411.35 1502.28 3410.91 1502.21 L3393.85 1497.92 Q3390.75 1497.12 3389.78 1496.94 Q3388.77 1496.73 3387.65 1496.73 Q3385.7 1496.73 3384.98 1497.34 Q3384.26 1497.95 3384.26 1499.03 Q3384.26 1500.91 3386.49 1502.14 Q3388.73 1503.36 3393.06 1504.41 Q3394.25 1504.73 3394.5 1504.95 Q3394.75 1505.13 3394.75 1505.67 Q3394.72 1506.57 3394 1506.57 Q3393.82 1506.57 3392.66 1506.28 Q3391.47 1506 3389.74 1505.45 Q3387.97 1504.88 3386.85 1504.26 Q3386.1 1503.9 3385.59 1503.58 Q3385.09 1503.25 3384.29 1502.61 Q3383.5 1501.96 3383.07 1500.98 Q3382.63 1500.01 3382.63 1498.82 Q3382.63 1496.22 3384.22 1494.38 Q3385.81 1492.51 3388.3 1492.07 Q3387 1491.17 3385.88 1490.05 Q3384.73 1488.93 3383.68 1486.88 Q3382.63 1484.82 3382.63 1482.62 Q3382.63 1479.88 3384.04 1478.19 Q3385.41 1476.49 3387.43 1476.49 Z" fill="#000000" fill-rule="evenodd" fill-opacity="1" /><path clip-path="url(#clip810)" d="M 0 0 M3387.29 1441.98 Q3389.34 1441.98 3390.57 1443.24 Q3391.8 1444.47 3391.8 1446.02 Q3391.8 1447.39 3391 1448.11 Q3390.21 1448.84 3389.2 1448.84 Q3388.77 1448.84 3388.23 1448.66 Q3387.65 1448.47 3386.96 1448.08 Q3386.28 1447.65 3385.77 1446.74 Q3385.27 1445.84 3385.2 1444.62 Q3384.94 1444.87 3384.91 1444.94 Q3384.47 1445.48 3384.33 1446.49 Q3384.26 1446.64 3384.26 1447.14 Q3384.26 1449.63 3386.1 1452.15 Q3387.9 1454.64 3391.33 1457.71 Q3395.33 1461.57 3396.81 1464.06 Q3398.25 1453.13 3404.57 1453.13 Q3405.61 1453.13 3406.87 1453.42 Q3409.25 1453.99 3410.99 1453.99 Q3414.45 1453.99 3414.45 1451.65 Q3414.45 1449.38 3412.14 1447.93 Q3409.83 1446.45 3405.32 1445.23 Q3404.49 1445.05 3404.24 1444.87 Q3403.99 1444.69 3403.99 1444.18 Q3403.99 1443.28 3404.71 1443.28 Q3408.93 1444.11 3412.18 1445.95 Q3416.11 1448.29 3416.11 1451.79 Q3416.11 1454.71 3414.09 1456.66 Q3412.03 1458.57 3408.79 1458.57 Q3407.99 1458.57 3406.19 1458.29 Q3405.47 1458.07 3404.64 1458.07 Q3402.94 1458.07 3401.68 1459.01 Q3400.38 1459.95 3399.73 1461.46 Q3399.08 1462.98 3398.79 1464.24 Q3398.47 1465.46 3398.36 1466.65 Q3413.62 1470.26 3414.56 1470.77 Q3415.21 1471.09 3415.64 1471.81 Q3416.11 1472.53 3416.11 1473.29 Q3416.11 1474.01 3415.6 1474.73 Q3415.13 1475.42 3414.02 1475.42 Q3413.44 1475.42 3412.39 1475.13 L3369.83 1464.42 L3368.39 1464.2 Q3367.95 1464.2 3367.74 1464.38 Q3367.48 1464.53 3367.3 1465.39 Q3367.12 1466.22 3367.12 1467.88 Q3367.12 1468.57 3367.09 1468.89 Q3367.05 1469.18 3366.87 1469.43 Q3366.66 1469.68 3366.22 1469.68 Q3365.61 1469.68 3365.28 1469.43 Q3364.92 1469.14 3364.85 1468.93 Q3364.78 1468.71 3364.74 1468.28 Q3364.71 1467.66 3364.53 1465.61 Q3364.31 1463.55 3364.17 1461.78 Q3364.02 1460.02 3364.02 1459.26 Q3364.02 1458.83 3364.24 1458.61 Q3364.42 1458.36 3364.64 1458.32 L3364.82 1458.29 L3395.98 1465.97 Q3394.72 1462.79 3389.13 1457.78 Q3382.63 1451.97 3382.63 1447 Q3382.63 1444.65 3384.08 1443.32 Q3385.48 1441.98 3387.29 1441.98 Z" fill="#000000" fill-rule="evenodd" fill-opacity="1" /><path clip-path="url(#clip810)" d="M 0 0 M3395.11 1407.48 Q3399.05 1407.48 3402.94 1409.21 Q3406.8 1410.94 3409.69 1413.72 Q3412.54 1416.46 3414.34 1420.07 Q3416.11 1423.68 3416.11 1427.28 Q3416.11 1432.44 3412.61 1435.8 Q3409.07 1439.11 3403.59 1439.11 Q3398.47 1439.11 3393.6 1436.26 Q3388.69 1433.38 3385.66 1428.76 Q3382.63 1424.15 3382.63 1419.31 Q3382.63 1414.23 3386.06 1410.87 Q3389.49 1407.48 3395.11 1407.48 M3392.23 1412.89 Q3388.73 1412.89 3386.49 1414.59 Q3384.26 1416.28 3384.26 1419.38 Q3384.26 1420.29 3384.55 1421.33 Q3384.8 1422.38 3385.48 1423.75 Q3386.17 1425.08 3387.61 1426.6 Q3389.02 1428.08 3391.04 1429.38 Q3393.71 1431.07 3398.61 1432.37 Q3403.48 1433.63 3406.4 1433.63 Q3410.44 1433.63 3412.46 1431.76 Q3414.45 1429.88 3414.45 1427.21 Q3414.45 1424.61 3412.65 1421.87 Q3410.81 1419.1 3407.67 1417.18 Q3404.42 1415.27 3399.66 1414.08 Q3394.86 1412.89 3392.23 1412.89 Z" fill="#000000" fill-rule="evenodd" fill-opacity="1" /><path clip-path="url(#clip810)" d="M 0 0 M3387.79 1372.56 Q3388.73 1372.56 3390.57 1372.82 Q3392.41 1373.07 3395.08 1373.68 Q3397.75 1374.29 3400.56 1375.2 Q3403.38 1376.06 3406.19 1377.43 Q3408.97 1378.8 3411.17 1380.43 Q3413.37 1382.05 3414.74 1384.32 Q3416.11 1386.59 3416.11 1389.16 Q3416.11 1390.35 3415.93 1391.5 Q3415.75 1392.65 3415.17 1394.1 Q3414.59 1395.54 3413.66 1396.59 Q3412.68 1397.63 3410.95 1398.35 Q3409.22 1399.07 3406.95 1399.07 Q3404.6 1399.07 3401.46 1398.21 Q3398.29 1397.31 3391.8 1394.85 Q3388.44 1393.59 3386.6 1393.59 Q3385.77 1393.59 3385.27 1393.77 Q3384.73 1393.95 3384.55 1394.31 Q3384.33 1394.67 3384.29 1394.89 Q3384.26 1395.07 3384.26 1395.43 Q3384.26 1397.42 3386.31 1399.44 Q3388.37 1401.46 3393.42 1402.9 Q3394.32 1403.19 3394.54 1403.37 Q3394.75 1403.55 3394.75 1404.09 Q3394.72 1404.99 3394 1404.99 Q3393.78 1404.99 3392.95 1404.74 Q3392.08 1404.49 3390.79 1404.02 Q3389.45 1403.55 3388.08 1402.72 Q3386.67 1401.89 3385.45 1400.88 Q3384.22 1399.83 3383.43 1398.35 Q3382.63 1396.87 3382.63 1395.21 Q3382.63 1392.51 3384.4 1390.85 Q3386.13 1389.16 3388.69 1389.16 Q3390.1 1389.16 3392.37 1390.06 Q3396.49 1391.57 3398.47 1392.26 Q3400.45 1392.94 3403.27 1393.66 Q3406.08 1394.35 3408.03 1394.35 Q3410.99 1394.35 3412.72 1392.98 Q3414.45 1391.61 3414.45 1388.87 Q3414.45 1386.41 3412.68 1384.21 Q3410.88 1381.98 3408.32 1380.5 Q3405.72 1379.02 3402.83 1377.9 Q3399.91 1376.78 3397.71 1376.28 Q3395.48 1375.74 3394.43 1375.74 Q3390.79 1375.74 3388.41 1378.23 Q3387.72 1378.91 3387.29 1379.16 Q3386.85 1379.42 3386.17 1379.42 Q3384.91 1379.42 3383.79 1378.3 Q3382.63 1377.14 3382.63 1375.81 Q3382.63 1374.58 3383.86 1373.57 Q3385.09 1372.56 3387.79 1372.56 Z" fill="#000000" fill-rule="evenodd" fill-opacity="1" /><path clip-path="url(#clip812)" d="
M4261.37 2188.63 L4261.37 2188.63 L4261.37 2188.63 L4261.37 2188.63 L4261.37 1630.16 L4261.37 2188.63  Z
  " fill="#4878d0" fill-rule="evenodd" fill-opacity="1"/>
<polyline clip-path="url(#clip812)" style="stroke:#000000; stroke-width:7.68; stroke-opacity:1; fill:none" points="
  4261.37,2188.63 4261.37,2188.63 4261.37,1630.16 4261.37,2188.63 
  "/>
<path clip-path="url(#clip812)" d="
M3819.13 1630.16 L3819.13 1122.47 L4261.37 1122.47 L4703.61 1122.47 L4703.61 1630.16 L3819.13 1630.16 L3819.13 1630.16  Z
  " fill="#4878d0" fill-rule="evenodd" fill-opacity="1"/>
<polyline clip-path="url(#clip812)" style="stroke:#000000; stroke-width:7.68; stroke-opacity:1; fill:none" points="
  3819.13,1630.16 3819.13,1122.47 4261.37,1122.47 4703.61,1122.47 4703.61,1630.16 3819.13,1630.16 
  "/>
<path clip-path="url(#clip812)" d="
M3819.13 953.232 L3819.13 1122.47 L4703.61 1122.47 L4703.61 953.232 L3819.13 953.232 L3819.13 953.232  Z
  " fill="#4878d0" fill-rule="evenodd" fill-opacity="1"/>
<polyline clip-path="url(#clip812)" style="stroke:#000000; stroke-width:7.68; stroke-opacity:1; fill:none" points="
  3819.13,953.232 3819.13,1122.47 4703.61,1122.47 4703.61,953.232 3819.13,953.232 
  "/>
<path clip-path="url(#clip812)" d="
M4261.37 360.917 L4261.37 360.917 L4261.37 360.917 L4261.37 360.917 L4261.37 953.232 L4261.37 360.917  Z
  " fill="#4878d0" fill-rule="evenodd" fill-opacity="1"/>
<polyline clip-path="url(#clip812)" style="stroke:#000000; stroke-width:7.68; stroke-opacity:1; fill:none" points="
  4261.37,360.917 4261.37,360.917 4261.37,953.232 4261.37,360.917 
  "/>
<polyline clip-path="url(#clip812)" style="stroke:#4878d0; stroke-width:0; stroke-opacity:1; fill:none" points="
  4261.37,2188.63 4261.37,2188.63 4261.37,1630.16 
  "/>
<polyline clip-path="url(#clip812)" style="stroke:#4878d0; stroke-width:0; stroke-opacity:1; fill:none" points="
  3819.13,1630.16 3819.13,1122.47 4261.37,1122.47 4703.61,1122.47 4703.61,1630.16 3819.13,1630.16 
  "/>
<polyline clip-path="url(#clip812)" style="stroke:#4878d0; stroke-width:0; stroke-opacity:1; fill:none" points="
  3819.13,953.232 3819.13,1122.47 4703.61,1122.47 4703.61,953.232 3819.13,953.232 
  "/>
<polyline clip-path="url(#clip812)" style="stroke:#4878d0; stroke-width:0; stroke-opacity:1; fill:none" points="
  4261.37,360.917 4261.37,360.917 4261.37,953.232 
  "/>
<path clip-path="url(#clip812)" d="
M5809.2 2899.41 L5809.2 2899.41 L5809.2 2899.41 L5809.2 2899.41 L5809.2 2188.63 L5809.2 2899.41  Z
  " fill="#ee854a" fill-rule="evenodd" fill-opacity="1"/>
<polyline clip-path="url(#clip812)" style="stroke:#000000; stroke-width:7.68; stroke-opacity:1; fill:none" points="
  5809.2,2899.41 5809.2,2899.41 5809.2,2188.63 5809.2,2899.41 
  "/>
<path clip-path="url(#clip812)" d="
M5366.97 2188.63 L5366.97 1445.55 L5809.2 1445.55 L6251.44 1445.55 L6251.44 2188.63 L5366.97 2188.63 L5366.97 2188.63  Z
  " fill="#ee854a" fill-rule="evenodd" fill-opacity="1"/>
<polyline clip-path="url(#clip812)" style="stroke:#000000; stroke-width:7.68; stroke-opacity:1; fill:none" points="
  5366.97,2188.63 5366.97,1445.55 5809.2,1445.55 6251.44,1445.55 6251.44,2188.63 5366.97,2188.63 
  "/>
<path clip-path="url(#clip812)" d="
M5366.97 741.691 L5366.97 1445.55 L6251.44 1445.55 L6251.44 741.691 L5366.97 741.691 L5366.97 741.691  Z
  " fill="#ee854a" fill-rule="evenodd" fill-opacity="1"/>
<polyline clip-path="url(#clip812)" style="stroke:#000000; stroke-width:7.68; stroke-opacity:1; fill:none" points="
  5366.97,741.691 5366.97,1445.55 6251.44,1445.55 6251.44,741.691 5366.97,741.691 
  "/>
<path clip-path="url(#clip812)" d="
M5809.2 157.838 L5809.2 157.838 L5809.2 157.838 L5809.2 157.838 L5809.2 741.691 L5809.2 157.838  Z
  " fill="#ee854a" fill-rule="evenodd" fill-opacity="1"/>
<polyline clip-path="url(#clip812)" style="stroke:#000000; stroke-width:7.68; stroke-opacity:1; fill:none" points="
  5809.2,157.838 5809.2,157.838 5809.2,741.691 5809.2,157.838 
  "/>
<polyline clip-path="url(#clip812)" style="stroke:#ee854a; stroke-width:0; stroke-opacity:1; fill:none" points="
  5809.2,2899.41 5809.2,2899.41 5809.2,2188.63 
  "/>
<polyline clip-path="url(#clip812)" style="stroke:#ee854a; stroke-width:0; stroke-opacity:1; fill:none" points="
  5366.97,2188.63 5366.97,1445.55 5809.2,1445.55 6251.44,1445.55 6251.44,2188.63 5366.97,2188.63 
  "/>
<polyline clip-path="url(#clip812)" style="stroke:#ee854a; stroke-width:0; stroke-opacity:1; fill:none" points="
  5366.97,741.691 5366.97,1445.55 6251.44,1445.55 6251.44,741.691 5366.97,741.691 
  "/>
<polyline clip-path="url(#clip812)" style="stroke:#ee854a; stroke-width:0; stroke-opacity:1; fill:none" points="
  5809.2,157.838 5809.2,157.838 5809.2,741.691 
  "/>
<circle clip-path="url(#clip812)" cx="4018.82" cy="1074.11" r="23" fill="#6acc64" fill-rule="evenodd" fill-opacity="1" stroke="#000000" stroke-opacity="1" stroke-width="10.24"/>
<circle clip-path="url(#clip812)" cx="3956.01" cy="1035.48" r="23" fill="#6acc64" fill-rule="evenodd" fill-opacity="1" stroke="#000000" stroke-opacity="1" stroke-width="10.24"/>
<circle clip-path="url(#clip812)" cx="4237.95" cy="2188.63" r="23" fill="#6acc64" fill-rule="evenodd" fill-opacity="1" stroke="#000000" stroke-opacity="1" stroke-width="10.24"/>
<circle clip-path="url(#clip812)" cx="4538.74" cy="1811.48" r="23" fill="#6acc64" fill-rule="evenodd" fill-opacity="1" stroke="#000000" stroke-opacity="1" stroke-width="10.24"/>
<circle clip-path="url(#clip812)" cx="4107.97" cy="953.232" r="23" fill="#6acc64" fill-rule="evenodd" fill-opacity="1" stroke="#000000" stroke-opacity="1" stroke-width="10.24"/>
<circle clip-path="url(#clip812)" cx="4336.68" cy="1071.7" r="23" fill="#6acc64" fill-rule="evenodd" fill-opacity="1" stroke="#000000" stroke-opacity="1" stroke-width="10.24"/>
<circle clip-path="url(#clip812)" cx="4408.01" cy="1694.18" r="23" fill="#6acc64" fill-rule="evenodd" fill-opacity="1" stroke="#000000" stroke-opacity="1" stroke-width="10.24"/>
<circle clip-path="url(#clip812)" cx="4532.78" cy="995.54" r="23" fill="#6acc64" fill-rule="evenodd" fill-opacity="1" stroke="#000000" stroke-opacity="1" stroke-width="10.24"/>
<circle clip-path="url(#clip812)" cx="4338.92" cy="1691.44" r="23" fill="#6acc64" fill-rule="evenodd" fill-opacity="1" stroke="#000000" stroke-opacity="1" stroke-width="10.24"/>
<circle clip-path="url(#clip812)" cx="4527.16" cy="669.163" r="23" fill="#6acc64" fill-rule="evenodd" fill-opacity="1" stroke="#000000" stroke-opacity="1" stroke-width="10.24"/>
<circle clip-path="url(#clip812)" cx="4200.45" cy="1610.64" r="23" fill="#6acc64" fill-rule="evenodd" fill-opacity="1" stroke="#000000" stroke-opacity="1" stroke-width="10.24"/>
<circle clip-path="url(#clip812)" cx="4275.04" cy="1376.31" r="23" fill="#6acc64" fill-rule="evenodd" fill-opacity="1" stroke="#000000" stroke-opacity="1" stroke-width="10.24"/>
<circle clip-path="url(#clip812)" cx="4358.76" cy="699.383" r="23" fill="#6acc64" fill-rule="evenodd" fill-opacity="1" stroke="#000000" stroke-opacity="1" stroke-width="10.24"/>
<circle clip-path="url(#clip812)" cx="4056.55" cy="764.356" r="23" fill="#6acc64" fill-rule="evenodd" fill-opacity="1" stroke="#000000" stroke-opacity="1" stroke-width="10.24"/>
<circle clip-path="url(#clip812)" cx="4356.51" cy="1010.38" r="23" fill="#6acc64" fill-rule="evenodd" fill-opacity="1" stroke="#000000" stroke-opacity="1" stroke-width="10.24"/>
<circle clip-path="url(#clip812)" cx="4037.71" cy="1857.29" r="23" fill="#6acc64" fill-rule="evenodd" fill-opacity="1" stroke="#000000" stroke-opacity="1" stroke-width="10.24"/>
<circle clip-path="url(#clip812)" cx="4396.75" cy="1122.47" r="23" fill="#6acc64" fill-rule="evenodd" fill-opacity="1" stroke="#000000" stroke-opacity="1" stroke-width="10.24"/>
<circle clip-path="url(#clip812)" cx="4243.8" cy="360.917" r="23" fill="#6acc64" fill-rule="evenodd" fill-opacity="1" stroke="#000000" stroke-opacity="1" stroke-width="10.24"/>
<circle clip-path="url(#clip812)" cx="4529.98" cy="1694.18" r="23" fill="#6acc64" fill-rule="evenodd" fill-opacity="1" stroke="#000000" stroke-opacity="1" stroke-width="10.24"/>
<circle clip-path="url(#clip812)" cx="4451.15" cy="1122.47" r="23" fill="#6acc64" fill-rule="evenodd" fill-opacity="1" stroke="#000000" stroke-opacity="1" stroke-width="10.24"/>
<circle clip-path="url(#clip812)" cx="3923.39" cy="1618.63" r="23" fill="#6acc64" fill-rule="evenodd" fill-opacity="1" stroke="#000000" stroke-opacity="1" stroke-width="10.24"/>
<circle clip-path="url(#clip812)" cx="4349.47" cy="411.687" r="23" fill="#6acc64" fill-rule="evenodd" fill-opacity="1" stroke="#000000" stroke-opacity="1" stroke-width="10.24"/>
<circle clip-path="url(#clip812)" cx="4617.39" cy="1630.16" r="23" fill="#6acc64" fill-rule="evenodd" fill-opacity="1" stroke="#000000" stroke-opacity="1" stroke-width="10.24"/>
<circle clip-path="url(#clip812)" cx="4463.6" cy="1376.31" r="23" fill="#6acc64" fill-rule="evenodd" fill-opacity="1" stroke="#000000" stroke-opacity="1" stroke-width="10.24"/>
<circle clip-path="url(#clip812)" cx="4017.02" cy="699.383" r="23" fill="#6acc64" fill-rule="evenodd" fill-opacity="1" stroke="#000000" stroke-opacity="1" stroke-width="10.24"/>
<circle clip-path="url(#clip812)" cx="5605.83" cy="397.181" r="23" fill="#d65f5f" fill-rule="evenodd" fill-opacity="1" stroke="#000000" stroke-opacity="1" stroke-width="10.24"/>
<circle clip-path="url(#clip812)" cx="5475.1" cy="1445.55" r="23" fill="#d65f5f" fill-rule="evenodd" fill-opacity="1" stroke="#000000" stroke-opacity="1" stroke-width="10.24"/>
<circle clip-path="url(#clip812)" cx="5989.27" cy="2899.41" r="23" fill="#d65f5f" fill-rule="evenodd" fill-opacity="1" stroke="#000000" stroke-opacity="1" stroke-width="10.24"/>
<circle clip-path="url(#clip812)" cx="5675.72" cy="2823.26" r="23" fill="#d65f5f" fill-rule="evenodd" fill-opacity="1" stroke="#000000" stroke-opacity="1" stroke-width="10.24"/>
<circle clip-path="url(#clip812)" cx="6014.93" cy="699.383" r="23" fill="#d65f5f" fill-rule="evenodd" fill-opacity="1" stroke="#000000" stroke-opacity="1" stroke-width="10.24"/>
<circle clip-path="url(#clip812)" cx="5468.85" cy="2023.63" r="23" fill="#d65f5f" fill-rule="evenodd" fill-opacity="1" stroke="#000000" stroke-opacity="1" stroke-width="10.24"/>
<circle clip-path="url(#clip812)" cx="6001.05" cy="1147.85" r="23" fill="#d65f5f" fill-rule="evenodd" fill-opacity="1" stroke="#000000" stroke-opacity="1" stroke-width="10.24"/>
<circle clip-path="url(#clip812)" cx="5954.25" cy="1249.39" r="23" fill="#d65f5f" fill-rule="evenodd" fill-opacity="1" stroke="#000000" stroke-opacity="1" stroke-width="10.24"/>
<circle clip-path="url(#clip812)" cx="5781.55" cy="1852.28" r="23" fill="#d65f5f" fill-rule="evenodd" fill-opacity="1" stroke="#000000" stroke-opacity="1" stroke-width="10.24"/>
<circle clip-path="url(#clip812)" cx="5437.12" cy="741.691" r="23" fill="#d65f5f" fill-rule="evenodd" fill-opacity="1" stroke="#000000" stroke-opacity="1" stroke-width="10.24"/>
<circle clip-path="url(#clip812)" cx="5753.11" cy="2188.63" r="23" fill="#d65f5f" fill-rule="evenodd" fill-opacity="1" stroke="#000000" stroke-opacity="1" stroke-width="10.24"/>
<circle clip-path="url(#clip812)" cx="6070.9" cy="2391.71" r="23" fill="#d65f5f" fill-rule="evenodd" fill-opacity="1" stroke="#000000" stroke-opacity="1" stroke-width="10.24"/>
<circle clip-path="url(#clip812)" cx="6028.38" cy="699.383" r="23" fill="#d65f5f" fill-rule="evenodd" fill-opacity="1" stroke="#000000" stroke-opacity="1" stroke-width="10.24"/>
<circle clip-path="url(#clip812)" cx="5943.25" cy="329.186" r="23" fill="#d65f5f" fill-rule="evenodd" fill-opacity="1" stroke="#000000" stroke-opacity="1" stroke-width="10.24"/>
<circle clip-path="url(#clip812)" cx="5492.61" cy="1445.55" r="23" fill="#d65f5f" fill-rule="evenodd" fill-opacity="1" stroke="#000000" stroke-opacity="1" stroke-width="10.24"/>
<circle clip-path="url(#clip812)" cx="5759.67" cy="2899.41" r="23" fill="#d65f5f" fill-rule="evenodd" fill-opacity="1" stroke="#000000" stroke-opacity="1" stroke-width="10.24"/>
<circle clip-path="url(#clip812)" cx="5725.53" cy="995.54" r="23" fill="#d65f5f" fill-rule="evenodd" fill-opacity="1" stroke="#000000" stroke-opacity="1" stroke-width="10.24"/>
<circle clip-path="url(#clip812)" cx="5902.87" cy="868.616" r="23" fill="#d65f5f" fill-rule="evenodd" fill-opacity="1" stroke="#000000" stroke-opacity="1" stroke-width="10.24"/>
<circle clip-path="url(#clip812)" cx="6074.74" cy="1147.85" r="23" fill="#d65f5f" fill-rule="evenodd" fill-opacity="1" stroke="#000000" stroke-opacity="1" stroke-width="10.24"/>
<circle clip-path="url(#clip812)" cx="5682.2" cy="1757.09" r="23" fill="#d65f5f" fill-rule="evenodd" fill-opacity="1" stroke="#000000" stroke-opacity="1" stroke-width="10.24"/>
<circle clip-path="url(#clip812)" cx="5908.48" cy="1847.09" r="23" fill="#d65f5f" fill-rule="evenodd" fill-opacity="1" stroke="#000000" stroke-opacity="1" stroke-width="10.24"/>
<circle clip-path="url(#clip812)" cx="5599.96" cy="157.838" r="23" fill="#d65f5f" fill-rule="evenodd" fill-opacity="1" stroke="#000000" stroke-opacity="1" stroke-width="10.24"/>
<circle clip-path="url(#clip812)" cx="5875" cy="2188.63" r="23" fill="#d65f5f" fill-rule="evenodd" fill-opacity="1" stroke="#000000" stroke-opacity="1" stroke-width="10.24"/>
<circle clip-path="url(#clip812)" cx="6105.09" cy="2391.71" r="23" fill="#d65f5f" fill-rule="evenodd" fill-opacity="1" stroke="#000000" stroke-opacity="1" stroke-width="10.24"/>
<circle clip-path="url(#clip812)" cx="5826.99" cy="699.383" r="23" fill="#d65f5f" fill-rule="evenodd" fill-opacity="1" stroke="#000000" stroke-opacity="1" stroke-width="10.24"/>
</svg>
